<?xml version="1.0" encoding="UTF-8" standalone="no"?>
<!DOCTYPE svg PUBLIC "-//W3C//DTD SVG 1.1//EN" "http://www.w3.org/Graphics/SVG/1.1/DTD/svg11.dtd">
<svg width="100%" height="100%" viewBox="0 0 128 128" version="1.1" xmlns="http://www.w3.org/2000/svg" xmlns:xlink="http://www.w3.org/1999/xlink" xml:space="preserve" xmlns:serif="http://www.serif.com/" style="fill-rule:evenodd;clip-rule:evenodd;stroke-linejoin:round;stroke-miterlimit:2;">
    <g id="Layer-1" serif:id="Layer 1" transform="matrix(0.123437,0,0,0.123437,2.36717,13.28)">
        <g transform="matrix(1,0,0,1,558.746,486.81)">
            <path d="M0,-195.53C-0.467,-195.351 -0.924,-195.163 -1.38,-194.964C-2.344,-194.587 -3.317,-194.189 -4.29,-193.792C-4.767,-193.584 -5.253,-193.385 -5.74,-193.177C-6.465,-192.889 -7.2,-192.571 -7.934,-192.243C-8.669,-191.935 -9.404,-191.608 -10.139,-191.28C-11.192,-190.813 -12.244,-190.356 -13.297,-189.87C-14.22,-189.463 -15.134,-189.026 -16.067,-188.589C-17.051,-188.122 -18.054,-187.655 -19.047,-187.159C-20.05,-186.682 -21.052,-186.185 -22.046,-185.679C-22.929,-185.242 -23.803,-184.805 -24.677,-184.338C-28.759,-182.243 -32.87,-179.999 -36.991,-177.586C-37.617,-177.218 -38.262,-176.851 -38.888,-176.464C-42.393,-174.388 -45.908,-172.193 -49.414,-169.87C-51.787,-168.291 -54.161,-166.672 -56.534,-164.994C-57.219,-164.507 -57.894,-164.021 -58.57,-163.524C-59.334,-162.978 -60.099,-162.412 -60.854,-161.856C-62.194,-160.853 -63.525,-159.86 -64.856,-158.827C-65.799,-158.092 -66.762,-157.347 -67.706,-156.593L-67.716,-156.583C-68.729,-155.778 -69.741,-154.964 -70.754,-154.13C-71.718,-153.355 -72.691,-152.541 -73.644,-151.737L-73.932,-151.488C-74.905,-150.684 -75.869,-149.85 -76.842,-148.996C-77.467,-148.45 -78.113,-147.884 -78.738,-147.308C-79.305,-146.821 -79.861,-146.325 -80.427,-145.808C-81.767,-144.597 -83.108,-143.355 -84.448,-142.084C-85.024,-141.548 -85.6,-141.002 -86.176,-140.436C-87.07,-139.592 -87.954,-138.728 -88.838,-137.854C-89.821,-136.881 -90.804,-135.878 -91.787,-134.875C-93.426,-133.207 -95.024,-131.538 -96.583,-129.85C-97.368,-129.006 -98.133,-128.172 -98.897,-127.318C-100.188,-125.898 -101.449,-124.468 -102.691,-123.038C-103.008,-122.66 -103.336,-122.293 -103.654,-121.926C-104.28,-121.171 -104.905,-120.436 -105.541,-119.681C-106.256,-118.827 -106.961,-117.983 -107.646,-117.119C-108.291,-116.355 -108.907,-115.58 -109.513,-114.815C-110.556,-113.505 -111.578,-112.184 -112.581,-110.873C-113.108,-110.198 -113.614,-109.513 -114.131,-108.847C-117.835,-103.892 -121.29,-98.917 -124.488,-93.971C-126.871,-90.287 -129.116,-86.603 -131.241,-82.949C-131.837,-81.936 -132.403,-80.923 -132.979,-79.9C-133.644,-78.738 -134.27,-77.586 -134.895,-76.424C-137.417,-71.777 -139.731,-67.189 -141.856,-62.671C-142.323,-61.687 -142.77,-60.714 -143.207,-59.741C-144.309,-57.328 -145.352,-54.945 -146.345,-52.591C-146.762,-51.608 -147.169,-50.635 -147.566,-49.652C-148.043,-48.47 -148.52,-47.278 -148.976,-46.097C-149.384,-45.084 -149.771,-44.061 -150.158,-43.048C-150.973,-40.873 -151.757,-38.738 -152.492,-36.613C-153.485,-33.793 -154.399,-31.042 -155.253,-28.341C-155.65,-27.08 -156.027,-25.839 -156.395,-24.587C-156.683,-23.634 -156.961,-22.671 -157.229,-21.727C-158.331,-17.934 -159.284,-14.289 -160.138,-10.824C-160.357,-9.95 -160.565,-9.106 -160.744,-8.252C-160.784,-8.073 -160.833,-7.884 -160.873,-7.686C-161.221,-6.196 -161.548,-4.746 -161.846,-3.336C-162.015,-2.542 -162.174,-1.757 -162.343,-0.993C-162.383,-0.824 -162.412,-0.655 -162.442,-0.496C-162.462,-0.417 -162.482,-0.327 -162.492,-0.248C-162.522,-0.158 -162.542,-0.079 -162.551,0C-163.356,-0.417 -164.17,-0.814 -164.984,-1.201C-165.253,-1.32 -165.521,-1.449 -165.799,-1.569C-166.156,-1.727 -166.524,-1.886 -166.891,-2.045C-167.258,-2.204 -167.626,-2.353 -167.993,-2.492C-168.271,-2.601 -168.549,-2.711 -168.818,-2.81C-169.662,-3.128 -170.506,-3.416 -171.35,-3.694C-172.353,-4.021 -173.366,-4.309 -174.389,-4.568C-178.47,-5.61 -182.661,-6.156 -186.96,-6.156C-192.452,-6.156 -197.795,-5.263 -202.929,-3.584C-202.75,-4.329 -202.551,-5.104 -202.353,-5.878C-201.787,-8.073 -201.171,-10.387 -200.476,-12.84C-200.089,-14.22 -199.681,-15.64 -199.244,-17.11C-199.244,-17.14 -199.225,-17.159 -199.215,-17.189C-198.996,-17.944 -198.758,-18.699 -198.529,-19.463C-198.063,-20.983 -197.566,-22.562 -197.05,-24.16C-196.941,-24.498 -196.831,-24.836 -196.722,-25.173C-196.613,-25.501 -196.504,-25.839 -196.384,-26.186C-196.335,-26.325 -196.295,-26.444 -196.245,-26.583C-195.987,-27.408 -195.699,-28.232 -195.411,-29.066C-194.269,-32.393 -193.028,-35.858 -191.658,-39.433C-191.618,-39.553 -191.568,-39.682 -191.528,-39.801C-191.479,-39.92 -191.429,-40.039 -191.379,-40.158C-191.082,-40.933 -190.774,-41.707 -190.466,-42.502C-190.158,-43.276 -189.84,-44.071 -189.522,-44.865C-189.334,-45.322 -189.145,-45.789 -188.956,-46.256C-188.758,-46.722 -188.569,-47.179 -188.38,-47.646C-188.261,-47.944 -188.132,-48.252 -188.013,-48.55C-187.973,-48.639 -187.944,-48.718 -187.904,-48.808C-187.715,-49.255 -187.517,-49.711 -187.328,-50.168C-186.087,-53.078 -184.766,-56.057 -183.376,-59.066C-182.929,-60.039 -182.462,-61.012 -182.005,-61.995C-181.012,-64.091 -179.969,-66.206 -178.897,-68.341C-178.361,-69.413 -177.805,-70.486 -177.258,-71.558C-176.136,-73.703 -174.984,-75.858 -173.793,-78.033C-173.147,-79.205 -172.492,-80.377 -171.816,-81.558C-171.3,-82.472 -170.764,-83.386 -170.228,-84.309C-169.542,-85.491 -168.847,-86.673 -168.132,-87.864C-167.646,-88.659 -167.159,-89.463 -166.663,-90.257C-166.107,-91.181 -165.54,-92.094 -164.965,-93.018C-164.031,-94.488 -163.078,-95.987 -162.095,-97.467C-161.568,-98.271 -161.032,-99.066 -160.496,-99.87C-159.96,-100.664 -159.413,-101.469 -158.857,-102.273C-157.884,-103.713 -156.871,-105.163 -155.829,-106.593C-155.471,-107.09 -155.123,-107.586 -154.766,-108.083C-154.408,-108.579 -154.041,-109.076 -153.684,-109.572C-153.108,-110.337 -152.532,-111.101 -151.956,-111.886C-150.754,-113.475 -149.533,-115.074 -148.291,-116.662C-147.656,-117.457 -147.03,-118.251 -146.385,-119.046C-146.017,-119.503 -145.64,-119.959 -145.272,-120.416C-144.905,-120.873 -144.528,-121.33 -144.15,-121.787C-144.15,-121.787 -144.14,-121.796 -144.121,-121.816C-143.862,-122.124 -143.604,-122.442 -143.336,-122.76C-143.167,-122.958 -142.998,-123.167 -142.83,-123.375L-142.82,-123.375C-142.691,-123.534 -142.552,-123.703 -142.412,-123.862L-142.412,-123.872C-141.757,-124.647 -141.102,-125.401 -140.426,-126.176C-140.416,-126.196 -140.397,-126.206 -140.387,-126.225L-140.357,-126.255C-140.357,-126.255 -140.357,-126.265 -140.347,-126.275C-140.337,-126.275 -140.337,-126.275 -140.327,-126.285C-139.9,-126.791 -139.473,-127.288 -139.036,-127.785C-138.609,-128.281 -138.162,-128.778 -137.715,-129.274C-137.269,-129.771 -136.822,-130.277 -136.365,-130.784C-135.908,-131.28 -135.441,-131.787 -134.975,-132.283C-134.667,-132.621 -134.359,-132.958 -134.061,-133.286C-134.001,-133.346 -133.952,-133.395 -133.902,-133.455C-133.505,-133.872 -133.118,-134.289 -132.72,-134.706C-132.125,-135.332 -131.529,-135.957 -130.943,-136.583C-130.337,-137.199 -129.731,-137.824 -129.126,-138.44C-128.52,-139.056 -127.904,-139.671 -127.288,-140.287C-126.673,-140.903 -126.047,-141.518 -125.422,-142.134C-124.776,-142.76 -124.131,-143.395 -123.475,-144.011C-123.435,-144.051 -123.396,-144.1 -123.346,-144.15C-123.296,-144.19 -123.247,-144.229 -123.197,-144.279C-122.76,-144.706 -122.313,-145.123 -121.856,-145.56C-121.4,-145.977 -120.933,-146.404 -120.476,-146.831C-119.682,-147.566 -118.887,-148.291 -118.083,-149.026C-117.557,-149.483 -117.02,-149.969 -116.494,-150.436C-116.097,-150.783 -115.69,-151.141 -115.292,-151.498C-114.885,-151.856 -114.478,-152.203 -114.071,-152.551C-113.694,-152.889 -113.306,-153.216 -112.929,-153.544C-112.542,-153.862 -112.154,-154.18 -111.777,-154.497C-111.181,-155.014 -110.575,-155.51 -109.97,-156.017C-108.252,-157.447 -106.504,-158.857 -104.716,-160.247C-104.409,-160.495 -104.101,-160.724 -103.793,-160.982C-103.783,-160.982 -103.773,-160.992 -103.763,-161.002L-103.753,-161.002C-103.743,-161.002 -103.743,-161.012 -103.723,-161.012C-102.651,-161.618 -101.578,-162.223 -100.496,-162.829L-100.486,-162.829C-99.672,-163.276 -98.858,-163.723 -98.033,-164.16C-96.405,-165.034 -94.756,-165.898 -93.108,-166.752C-92.274,-167.179 -91.449,-167.596 -90.615,-168.013C-89.503,-168.569 -88.391,-169.115 -87.269,-169.661C-86.137,-170.207 -84.995,-170.744 -83.853,-171.28C-82.969,-171.687 -82.085,-172.094 -81.201,-172.501C-79.831,-173.117 -78.451,-173.733 -77.07,-174.329C-68.868,-177.903 -60.447,-181.091 -51.847,-183.892C-35.63,-189.165 -18.778,-193.037 -1.4,-195.331C-0.933,-195.401 -0.467,-195.47 0,-195.53" style="fill:rgb(3,4,5);fill-rule:nonzero;"/>
        </g>
        <g transform="matrix(1,0,0,1,868.176,538.374)">
            <path d="M0,37.93C0,38.666 0,39.383 -0.02,40.099C-0.02,40.736 -0.04,41.353 -0.06,41.97C-0.08,42.567 -0.099,43.184 -0.119,43.801L-0.119,43.88C-0.159,44.975 -0.199,46.049 -0.259,47.124C-0.259,47.442 -0.279,47.761 -0.299,48.099C-0.299,48.179 -0.318,48.278 -0.318,48.358C-0.338,48.696 -0.358,49.015 -0.378,49.333L-0.438,50.467C-0.458,50.845 -0.478,51.223 -0.517,51.602L-0.517,51.741C-0.577,52.437 -0.617,53.134 -0.677,53.85C-0.677,53.89 -0.677,53.95 -0.697,53.99C-0.697,54.189 -0.716,54.388 -0.736,54.587C-0.756,54.945 -0.796,55.283 -0.816,55.621C-0.816,55.661 -0.836,55.721 -0.836,55.761C-0.856,56 -0.876,56.258 -0.896,56.497C-0.935,56.955 -0.975,57.393 -1.015,57.83C-1.055,58.268 -1.114,58.726 -1.154,59.164C-1.174,59.383 -1.194,59.602 -1.214,59.82C-1.333,60.915 -1.453,61.99 -1.572,63.064C-1.612,63.323 -1.632,63.582 -1.672,63.82C-1.692,63.98 -1.711,64.119 -1.731,64.278C-1.851,65.253 -1.97,66.209 -2.109,67.184C-2.229,68.099 -2.368,69.034 -2.508,69.95C-2.647,70.865 -2.786,71.801 -2.925,72.696C-3.065,73.512 -3.204,74.308 -3.343,75.124C-3.622,76.696 -3.901,78.288 -4.219,79.86C-4.458,81.114 -4.716,82.388 -4.995,83.641C-4.995,83.681 -5.015,83.741 -5.015,83.781C-5.035,83.88 -5.055,83.96 -5.075,84.059C-5.353,85.313 -5.632,86.587 -5.93,87.82C-5.97,87.96 -5.99,88.099 -6.03,88.238C-6.289,89.333 -6.547,90.427 -6.826,91.502C-6.925,91.86 -7.005,92.218 -7.104,92.557C-7.124,92.676 -7.164,92.795 -7.204,92.915C-7.483,93.989 -7.761,95.044 -8.06,96.099L-8.06,96.119C-8.478,97.631 -8.896,99.144 -9.353,100.636C-9.353,100.656 -9.353,100.656 -9.373,100.656C-9.811,102.169 -10.289,103.641 -10.766,105.134L-10.766,105.154C-11.005,105.89 -11.264,106.646 -11.503,107.383C-11.94,108.676 -12.398,109.95 -12.856,111.243C-13.035,111.741 -13.214,112.258 -13.413,112.756C-13.453,112.875 -13.493,112.994 -13.532,113.134C-13.731,113.651 -13.93,114.169 -14.129,114.706C-14.308,115.183 -14.488,115.661 -14.687,116.139C-14.885,116.696 -15.104,117.253 -15.323,117.79C-15.463,118.149 -15.602,118.487 -15.761,118.845C-16.139,119.78 -16.517,120.716 -16.915,121.651C-16.975,121.83 -17.055,121.989 -17.114,122.149C-17.254,122.447 -17.393,122.766 -17.512,123.064C-17.552,123.164 -17.592,123.243 -17.632,123.323C-18.07,124.318 -18.488,125.313 -18.925,126.288C-19.065,126.606 -19.224,126.945 -19.363,127.263C-19.582,127.721 -19.801,128.198 -20.02,128.676C-20.199,129.054 -20.378,129.412 -20.537,129.771C-20.577,129.87 -20.637,129.989 -20.696,130.089C-20.975,130.666 -21.254,131.243 -21.532,131.82C-21.811,132.397 -22.09,132.974 -22.388,133.552C-22.965,134.746 -23.562,135.92 -24.179,137.094C-24.199,137.094 -24.199,137.114 -24.199,137.114C-24.895,138.447 -25.612,139.78 -26.348,141.094C-26.348,141.114 -26.348,141.114 -26.368,141.114C-26.667,141.651 -26.965,142.188 -27.264,142.726C-27.562,143.263 -27.88,143.78 -28.199,144.318C-28.378,144.636 -28.537,144.955 -28.736,145.253C-28.816,145.432 -28.915,145.591 -29.015,145.77C-29.094,145.89 -29.154,145.989 -29.234,146.109C-29.234,146.129 -29.254,146.168 -29.274,146.188C-29.313,146.248 -29.353,146.328 -29.393,146.387C-29.492,146.566 -29.612,146.746 -29.711,146.925C-29.731,146.945 -29.751,146.964 -29.751,146.984C-30.149,147.621 -30.527,148.278 -30.925,148.915C-31.721,150.188 -32.517,151.462 -33.353,152.716C-33.751,153.333 -34.149,153.969 -34.567,154.586C-35.403,155.84 -36.259,157.074 -37.114,158.268C-37.97,159.502 -38.826,160.696 -39.721,161.89L-39.721,161.91C-40.597,163.084 -41.492,164.258 -42.408,165.432L-42.408,165.452C-42.985,166.168 -43.542,166.905 -44.119,167.601C-45.273,169.054 -46.468,170.467 -47.662,171.88C-48.259,172.556 -48.856,173.253 -49.472,173.949C-50.268,174.845 -51.065,175.74 -51.861,176.616C-55.9,181.014 -60.139,185.173 -64.577,189.074C-66.368,190.646 -68.159,192.178 -69.99,193.651C-72.736,195.86 -75.522,197.969 -78.388,199.979C-79.343,200.656 -80.298,201.332 -81.273,201.969C-82.567,202.845 -83.88,203.701 -85.194,204.517C-85.85,204.934 -86.507,205.352 -87.184,205.75C-88.179,206.367 -89.174,206.964 -90.169,207.541C-91.184,208.118 -92.199,208.696 -93.234,209.253C-100.736,213.392 -108.597,216.914 -116.816,219.74C-118.308,220.258 -119.781,220.735 -121.293,221.213L-121.313,221.213C-122.447,221.571 -123.582,221.909 -124.716,222.248C-125.87,222.566 -127.005,222.865 -128.179,223.183L-128.199,223.183C-131.263,223.979 -134.388,224.695 -137.552,225.312C-138.746,225.531 -139.96,225.75 -141.174,225.949C-142.368,226.168 -143.562,226.347 -144.776,226.526C-145.99,226.705 -147.204,226.865 -148.417,227.004C-149.591,227.143 -150.786,227.283 -151.98,227.382C-153.193,227.501 -154.407,227.601 -155.621,227.681C-157.412,227.8 -159.183,227.9 -160.975,227.959C-162.746,228.019 -164.517,228.059 -166.288,228.059C-167.283,228.059 -168.258,228.059 -169.233,228.039L-169.532,228.039C-170.169,228.019 -170.785,227.999 -171.422,227.979C-172.397,227.939 -173.372,227.9 -174.348,227.84C-174.567,227.84 -174.766,227.84 -174.984,227.82C-176.179,227.76 -177.372,227.661 -178.566,227.561C-179.999,227.462 -181.412,227.342 -182.845,227.183C-187.203,226.705 -191.522,226.049 -195.82,225.213C-206.865,223.064 -217.691,219.72 -228.158,215.302C-229.293,214.825 -230.407,214.327 -231.542,213.83C-232.716,213.293 -233.89,212.755 -235.044,212.218C-235.104,212.178 -235.183,212.158 -235.223,212.118C-236.417,211.561 -237.591,210.984 -238.745,210.407C-240.716,209.412 -242.666,208.377 -244.576,207.322C-245.591,206.765 -246.586,206.208 -247.581,205.631C-251.084,203.601 -254.526,201.472 -257.91,199.203C-259.502,198.128 -261.074,197.054 -262.646,195.939C-281.034,182.805 -297.551,166.049 -311.302,146.407C-312.138,145.233 -312.954,144.039 -313.75,142.825C-315.78,139.82 -317.75,136.736 -319.641,133.591C-320.775,131.721 -321.87,129.81 -322.964,127.88L-322.964,127.86C-323.601,126.726 -324.218,125.611 -324.835,124.457C-326.069,122.188 -327.263,119.88 -328.417,117.552C-328.994,116.377 -329.571,115.203 -330.128,114.029C-330.447,113.333 -330.785,112.656 -331.103,111.98C-331.72,110.626 -332.337,109.253 -332.954,107.88C-333.253,107.183 -333.551,106.487 -333.85,105.79C-334.665,103.88 -335.461,101.97 -336.238,100.019C-336.576,99.164 -336.914,98.308 -337.253,97.452C-338.228,94.885 -339.163,92.298 -340.078,89.671C-340.516,88.358 -340.974,87.044 -341.392,85.731C-342.685,81.751 -343.879,77.711 -344.974,73.611C-346.188,69.074 -347.282,64.477 -348.238,59.781C-348.417,58.845 -348.616,57.91 -348.795,56.975C-349.073,55.522 -349.332,54.089 -349.591,52.636C-349.651,52.338 -349.69,52.02 -349.75,51.721C-349.889,50.885 -350.029,50.069 -350.168,49.233C-350.208,48.935 -350.247,48.636 -350.307,48.338C-350.407,47.621 -350.526,46.885 -350.646,46.169C-350.665,45.93 -350.705,45.691 -350.745,45.452C-350.924,44.278 -351.083,43.104 -351.223,41.93C-351.342,41.194 -351.422,40.457 -351.521,39.721C-351.561,39.283 -351.621,38.845 -351.66,38.427C-351.919,36.079 -352.158,33.731 -352.357,31.423C-352.357,31.363 -352.357,31.283 -352.377,31.224C-352.377,31.124 -352.377,31.025 -352.397,30.925C-352.476,30.049 -352.536,29.174 -352.596,28.298C-352.675,27.263 -352.735,26.229 -352.795,25.194C-352.854,24.438 -352.894,23.681 -352.934,22.925L-352.934,22.627C-352.954,22.229 -352.974,21.83 -352.994,21.413L-353.054,20.219L-353.054,19.801C-353.073,19.383 -353.093,18.945 -353.113,18.527L-353.113,18.288C-353.133,17.85 -353.133,17.433 -353.133,16.995C-353.153,16.637 -353.173,16.298 -353.173,15.96L-353.193,14.428C-353.213,13.313 -353.213,12.219 -353.213,11.124L-353.213,9.751C-353.213,9.572 -353.213,9.373 -353.193,9.174C-353.193,8.457 -353.173,7.721 -353.173,7.005C-353.153,6.746 -353.153,6.467 -353.153,6.209C-353.153,6.069 -353.133,5.93 -353.133,5.811L-353.133,5.731C-353.133,5.134 -353.113,4.537 -353.093,3.96C-353.054,2.806 -353.014,1.652 -352.954,0.497L-352.954,0.259C-352.914,-0.378 -352.894,-1.015 -352.854,-1.652C-352.835,-2.149 -352.795,-2.627 -352.755,-3.125C-352.735,-3.343 -352.735,-3.582 -352.715,-3.801C-352.695,-4 -352.695,-4.179 -352.675,-4.378C-352.675,-4.478 -352.656,-4.597 -352.656,-4.697C-352.656,-4.776 -352.636,-4.876 -352.636,-4.955C-352.616,-5.294 -352.596,-5.612 -352.576,-5.95C-352.536,-6.508 -352.496,-7.045 -352.437,-7.602C-352.377,-8.299 -352.317,-9.015 -352.257,-9.732C-352.238,-9.891 -352.218,-10.05 -352.198,-10.229C-352.178,-10.468 -352.158,-10.707 -352.138,-10.965C-352.098,-11.324 -352.059,-11.702 -352.019,-12.08C-352.019,-12.179 -351.999,-12.259 -351.999,-12.358C-351.939,-12.856 -351.879,-13.334 -351.84,-13.851C-351.82,-14.11 -351.78,-14.368 -351.76,-14.627C-351.72,-14.866 -351.7,-15.105 -351.66,-15.343C-351.581,-16.04 -351.501,-16.717 -351.402,-17.413C-351.342,-18.01 -351.262,-18.627 -351.163,-19.224C-351.103,-19.741 -351.044,-20.279 -350.964,-20.796C-350.864,-21.493 -350.765,-22.189 -350.646,-22.886C-350.546,-23.622 -350.427,-24.378 -350.307,-25.134C-350.148,-26.129 -349.969,-27.105 -349.81,-28.08C-349.79,-28.159 -349.77,-28.259 -349.75,-28.338C-349.71,-28.597 -349.67,-28.856 -349.631,-29.115C-349.531,-29.652 -349.432,-30.189 -349.332,-30.746C-349.292,-30.886 -349.272,-31.045 -349.233,-31.184C-349.193,-31.383 -349.173,-31.582 -349.113,-31.801C-348.994,-32.498 -348.854,-33.174 -348.715,-33.871C-348.616,-34.309 -348.536,-34.766 -348.437,-35.204C-348.098,-36.856 -347.74,-38.488 -347.362,-40.139C-347.262,-40.557 -347.163,-40.975 -347.063,-41.393C-347.044,-41.512 -347.004,-41.632 -346.984,-41.751C-346.924,-41.93 -346.884,-42.129 -346.825,-42.309C-346.685,-42.906 -346.546,-43.522 -346.387,-44.119C-346.387,-44.139 -346.367,-44.159 -346.367,-44.159C-346.367,-44.199 -346.347,-44.219 -346.347,-44.259C-346.327,-44.299 -346.327,-44.358 -346.307,-44.398C-346.307,-44.438 -346.287,-44.458 -346.287,-44.498C-346.247,-44.617 -346.228,-44.736 -346.188,-44.856C-346.148,-45.035 -346.108,-45.214 -346.068,-45.413C-345.889,-46.07 -345.71,-46.746 -345.531,-47.423C-345.352,-48.06 -345.173,-48.736 -344.974,-49.393C-344.914,-49.672 -344.835,-49.95 -344.755,-50.229C-344.636,-50.627 -344.536,-51.005 -344.417,-51.383C-343.979,-52.916 -343.501,-54.428 -343.044,-55.96C-342.884,-56.438 -342.745,-56.896 -342.586,-57.373C-342.447,-57.771 -342.307,-58.189 -342.168,-58.587C-342.088,-58.846 -342.009,-59.105 -341.929,-59.343C-341.85,-59.562 -341.79,-59.761 -341.71,-59.96C-341.651,-60.159 -341.571,-60.378 -341.511,-60.577C-341.412,-60.856 -341.332,-61.114 -341.233,-61.393C-341.153,-61.652 -341.054,-61.91 -340.974,-62.189C-340.695,-62.965 -340.417,-63.761 -340.118,-64.557C-339.919,-65.095 -339.72,-65.652 -339.501,-66.209C-338.964,-67.702 -338.387,-69.174 -337.81,-70.667C-337.551,-71.284 -337.312,-71.92 -337.054,-72.537C-336.655,-73.492 -336.258,-74.468 -335.84,-75.423C-335.68,-75.781 -335.521,-76.139 -335.382,-76.497C-334.964,-77.433 -334.566,-78.368 -334.128,-79.284C-333.889,-79.841 -333.631,-80.378 -333.392,-80.915C-333.213,-81.353 -332.994,-81.771 -332.795,-82.209C-332.516,-82.786 -332.238,-83.383 -331.959,-83.96C-331.74,-84.418 -331.521,-84.876 -331.282,-85.333C-331.004,-85.93 -330.705,-86.527 -330.407,-87.124C-330.208,-87.502 -330.009,-87.88 -329.79,-88.278C-329.591,-88.677 -329.392,-89.075 -329.193,-89.453C-328.795,-90.229 -328.397,-90.985 -327.999,-91.721C-326.944,-93.691 -325.85,-95.642 -324.715,-97.552C-324.397,-98.089 -324.078,-98.647 -323.76,-99.184C-323.083,-100.338 -322.387,-101.472 -321.671,-102.587C-321.332,-103.124 -321.014,-103.642 -320.675,-104.159C-320.656,-104.199 -320.636,-104.219 -320.616,-104.259C-320.516,-104.418 -320.417,-104.577 -320.297,-104.736C-320.178,-104.935 -320.039,-105.134 -319.919,-105.353C-319.641,-105.751 -319.382,-106.169 -319.103,-106.567C-318.646,-107.283 -318.168,-107.98 -317.69,-108.696C-317.452,-109.035 -317.213,-109.393 -316.974,-109.751C-316.855,-109.93 -316.715,-110.109 -316.596,-110.268C-316.019,-111.104 -315.442,-111.94 -314.845,-112.756C-314.526,-113.194 -314.208,-113.632 -313.87,-114.069C-313.551,-114.527 -313.253,-114.965 -312.914,-115.383C-312.894,-115.423 -312.875,-115.443 -312.855,-115.463C-312.755,-115.582 -312.656,-115.721 -312.576,-115.86C-312.536,-115.88 -312.516,-115.92 -312.496,-115.94C-312.377,-116.099 -312.258,-116.258 -312.138,-116.418C-312.098,-116.477 -312.059,-116.517 -312.019,-116.577C-311.919,-116.716 -311.8,-116.855 -311.68,-117.015C-311.302,-117.512 -310.904,-118.03 -310.506,-118.527C-310.108,-119.045 -309.71,-119.542 -309.292,-120.06C-308.894,-120.557 -308.496,-121.055 -308.098,-121.552C-307.68,-122.05 -307.283,-122.547 -306.865,-123.025C-306.685,-123.263 -306.487,-123.482 -306.288,-123.721C-306.088,-123.96 -305.89,-124.179 -305.71,-124.418C-305.293,-124.895 -304.875,-125.373 -304.457,-125.851C-304.417,-125.91 -304.357,-125.97 -304.297,-126.03C-303.959,-126.428 -303.601,-126.826 -303.243,-127.244C-303.103,-127.403 -302.964,-127.562 -302.805,-127.721C-301.213,-129.492 -299.601,-131.224 -297.969,-132.895C-292.875,-138.129 -287.482,-143.005 -281.79,-147.482C-281.392,-147.801 -280.994,-148.099 -280.596,-148.418C-280.198,-148.736 -279.78,-149.035 -279.382,-149.353C-277.89,-150.487 -276.357,-151.622 -274.805,-152.696C-274.467,-152.935 -274.128,-153.174 -273.79,-153.413C-273.472,-153.632 -273.173,-153.85 -272.875,-154.049C-271.402,-155.064 -269.909,-156.039 -268.417,-156.995L-266.984,-157.87C-265.332,-158.905 -263.641,-159.92 -261.929,-160.895C-261.432,-161.174 -260.934,-161.452 -260.417,-161.731C-259.462,-162.268 -258.487,-162.786 -257.512,-163.303C-257.432,-163.343 -257.352,-163.383 -257.273,-163.422C-256.656,-163.741 -256.039,-164.079 -255.402,-164.398C-254.785,-164.696 -254.168,-165.015 -253.551,-165.313C-253.452,-165.353 -253.372,-165.413 -253.273,-165.452C-252.915,-165.631 -252.556,-165.811 -252.198,-165.97C-250.328,-166.865 -248.437,-167.721 -246.526,-168.537C-245.611,-168.935 -244.676,-169.313 -243.74,-169.691C-243.303,-169.87 -242.865,-170.049 -242.427,-170.228C-240.954,-170.806 -239.462,-171.363 -237.969,-171.9C-237.173,-172.199 -236.357,-172.457 -235.561,-172.736C-234.885,-172.975 -234.188,-173.194 -233.492,-173.413C-233.193,-173.532 -232.855,-173.651 -232.517,-173.731C-232.238,-173.83 -231.939,-173.91 -231.661,-173.99C-231.084,-174.169 -230.507,-174.348 -229.93,-174.527C-229.452,-174.666 -228.974,-174.806 -228.517,-174.945C-228.079,-175.064 -227.661,-175.184 -227.223,-175.303C-226.905,-175.383 -226.586,-175.482 -226.268,-175.562C-225.691,-175.721 -225.114,-175.86 -224.537,-176.02C-224.357,-176.059 -224.178,-176.099 -223.999,-176.159C-223.542,-176.278 -223.084,-176.398 -222.606,-176.497C-222.188,-176.597 -221.77,-176.696 -221.352,-176.796C-220.716,-176.955 -220.079,-177.094 -219.442,-177.233C-218.188,-177.512 -216.915,-177.771 -215.621,-178.01C-180.636,-184.796 -145.711,-178.885 -114.487,-163.124C-111.86,-161.811 -109.253,-160.418 -106.686,-158.965C-105.413,-158.229 -104.119,-157.472 -102.865,-156.736C-102.865,-156.736 -102.865,-156.716 -102.845,-156.716C-101.592,-155.96 -100.318,-155.184 -99.064,-154.388C-94.03,-151.184 -89.114,-147.721 -84.358,-144.02C-82.368,-142.467 -80.398,-140.895 -78.447,-139.243C-77.91,-138.806 -77.393,-138.368 -76.875,-137.91C-76.696,-137.771 -76.517,-137.612 -76.338,-137.452C-75.761,-136.975 -75.204,-136.477 -74.627,-135.98C-74.189,-135.582 -73.751,-135.204 -73.333,-134.806C-73.154,-134.646 -72.975,-134.487 -72.796,-134.328C-72.139,-133.731 -71.482,-133.134 -70.846,-132.517C-70.109,-131.86 -69.373,-131.164 -68.656,-130.467C-67.224,-129.094 -65.811,-127.681 -64.398,-126.268C-63.005,-124.836 -61.612,-123.363 -60.239,-121.91C-58.865,-120.418 -57.512,-118.905 -56.179,-117.393C-55.542,-116.676 -54.905,-115.94 -54.288,-115.204C-53.592,-114.388 -52.915,-113.572 -52.239,-112.736C-51.602,-111.96 -50.945,-111.164 -50.308,-110.368C-42.985,-101.234 -36.298,-91.343 -30.368,-80.796C-29.99,-80.119 -29.612,-79.463 -29.254,-78.786C-27.98,-76.497 -26.746,-74.149 -25.532,-71.761C-25.094,-70.886 -24.637,-69.99 -24.199,-69.075C-23.9,-68.458 -23.602,-67.821 -23.303,-67.204C-23.284,-67.144 -23.264,-67.104 -23.224,-67.065C-23.184,-66.965 -23.124,-66.866 -23.085,-66.766C-23.065,-66.726 -23.045,-66.667 -23.025,-66.607C-22.487,-65.453 -21.93,-64.299 -21.393,-63.124C-20.955,-62.149 -20.497,-61.154 -20.06,-60.179C-19.383,-58.607 -18.706,-57.055 -18.07,-55.483C-17.692,-54.527 -17.293,-53.592 -16.935,-52.637C-16.637,-51.94 -16.358,-51.224 -16.099,-50.508C-15.662,-49.433 -15.264,-48.338 -14.866,-47.264C-14.726,-46.906 -14.607,-46.567 -14.488,-46.229C-14.229,-45.532 -13.97,-44.836 -13.731,-44.139C-13.453,-43.343 -13.174,-42.547 -12.915,-41.751C-12.637,-40.935 -12.358,-40.1 -12.08,-39.284C-11.264,-36.816 -10.488,-34.328 -9.751,-31.821C-9.692,-31.622 -9.632,-31.403 -9.572,-31.204C-9.493,-30.945 -9.433,-30.707 -9.353,-30.448C-9.333,-30.388 -9.313,-30.309 -9.293,-30.229L-9.134,-29.652C-9.095,-29.493 -9.035,-29.333 -8.995,-29.154C-8.995,-29.134 -8.975,-29.115 -8.975,-29.095C-8.816,-28.518 -8.657,-27.96 -8.497,-27.383C-8.358,-26.826 -8.199,-26.249 -8.04,-25.672C-7.701,-24.358 -7.343,-23.025 -7.025,-21.692C-6.985,-21.572 -6.965,-21.473 -6.945,-21.353C-6.766,-20.677 -6.607,-20 -6.468,-19.304C-6.428,-19.244 -6.408,-19.164 -6.408,-19.085C-6.269,-18.528 -6.129,-17.97 -6.01,-17.433C-5.771,-16.358 -5.532,-15.304 -5.313,-14.229C-4.995,-12.717 -4.677,-11.224 -4.378,-9.692C-3.682,-6.03 -3.065,-2.348 -2.527,1.313C-2.348,2.527 -2.169,3.741 -2.01,4.975C-1.891,5.91 -1.771,6.846 -1.672,7.781C-1.552,8.716 -1.453,9.651 -1.353,10.587C-1.134,12.438 -0.955,14.308 -0.816,16.159C-0.736,17.094 -0.657,18.01 -0.597,18.945C-0.537,19.642 -0.497,20.338 -0.458,21.035C-0.438,21.273 -0.418,21.512 -0.398,21.731C-0.378,22.189 -0.338,22.646 -0.338,23.104C-0.299,23.801 -0.259,24.497 -0.219,25.194C-0.199,25.89 -0.179,26.587 -0.139,27.283C-0.099,28.338 -0.08,29.393 -0.04,30.467C-0.02,31.104 -0.02,31.721 -0.02,32.358C0,32.776 0,33.214 0,33.632L0,34.229C0.02,34.965 0.02,35.681 0.02,36.398L0.02,36.995C0.02,37.313 0.02,37.612 0,37.93M-2.07,-43.403C-3.761,-50.309 -5.731,-57.095 -8,-63.761C-9.532,-68.378 -11.204,-72.935 -13.015,-77.453C-53.114,-178.049 -154.169,-249.432 -272.497,-249.432C-275.661,-249.432 -278.825,-249.392 -281.989,-249.273C-291.243,-248.994 -300.397,-248.238 -309.392,-247.104L-309.432,-247.104C-309.89,-246.925 -310.347,-246.726 -310.805,-246.527C-311.78,-246.149 -312.755,-245.751 -313.71,-245.353C-314.188,-245.154 -314.685,-244.955 -315.163,-244.736C-315.899,-244.437 -316.636,-244.119 -317.372,-243.8C-318.108,-243.502 -318.825,-243.164 -319.561,-242.845C-320.616,-242.387 -321.671,-241.93 -322.725,-241.432C-323.641,-241.014 -324.576,-240.596 -325.491,-240.159L-328.476,-238.726C-329.471,-238.248 -330.486,-237.751 -331.481,-237.253C-332.357,-236.815 -333.233,-236.358 -334.108,-235.9C-338.188,-233.81 -342.307,-231.562 -346.427,-229.154C-347.044,-228.776 -347.7,-228.417 -348.317,-228.019C-351.82,-225.95 -355.342,-223.761 -358.845,-221.432C-361.213,-219.86 -363.581,-218.228 -365.969,-216.557C-366.645,-216.079 -367.322,-215.582 -367.999,-215.084C-368.755,-214.547 -369.531,-213.97 -370.287,-213.412C-371.621,-212.417 -372.954,-211.422 -374.287,-210.387C-375.223,-209.651 -376.198,-208.915 -377.133,-208.159L-377.153,-208.139C-378.168,-207.343 -379.163,-206.527 -380.178,-205.691C-381.153,-204.915 -382.128,-204.099 -383.083,-203.303L-383.362,-203.044C-384.337,-202.248 -385.292,-201.412 -386.267,-200.557C-386.904,-200.019 -387.541,-199.442 -388.178,-198.865C-388.735,-198.388 -389.292,-197.89 -389.849,-197.373C-391.203,-196.159 -392.536,-194.925 -393.869,-193.651C-394.446,-193.114 -395.023,-192.557 -395.601,-191.999C-396.496,-191.164 -397.392,-190.288 -398.267,-189.412C-399.242,-188.437 -400.237,-187.442 -401.212,-186.447C-402.864,-184.776 -404.456,-183.104 -406.009,-181.412C-406.804,-180.577 -407.561,-179.741 -408.337,-178.885C-409.611,-177.472 -410.884,-176.039 -412.118,-174.607C-412.436,-174.228 -412.775,-173.85 -413.093,-173.492C-413.71,-172.736 -414.327,-172 -414.964,-171.243C-415.68,-170.388 -416.397,-169.552 -417.073,-168.676C-417.71,-167.92 -418.327,-167.144 -418.944,-166.388C-419.979,-165.074 -421.013,-163.741 -422.008,-162.447C-422.546,-161.771 -423.043,-161.074 -423.561,-160.418C-427.262,-155.462 -430.725,-150.487 -433.909,-145.532C-436.297,-141.851 -438.546,-138.169 -440.675,-134.507C-441.272,-133.492 -441.829,-132.477 -442.406,-131.462C-443.083,-130.308 -443.7,-129.154 -444.317,-127.98C-446.844,-123.343 -449.153,-118.746 -451.282,-114.229C-451.76,-113.253 -452.197,-112.278 -452.635,-111.303C-453.73,-108.895 -454.785,-106.507 -455.78,-104.159C-456.197,-103.164 -456.595,-102.209 -456.993,-101.214C-457.471,-100.04 -457.949,-98.846 -458.406,-97.652C-458.804,-96.657 -459.202,-95.622 -459.58,-94.607C-460.396,-92.438 -461.192,-90.308 -461.929,-88.179C-462.924,-85.353 -463.819,-82.607 -464.675,-79.9C-465.073,-78.647 -465.451,-77.413 -465.829,-76.159C-466.108,-75.204 -466.386,-74.229 -466.665,-73.294C-467.759,-69.492 -468.715,-65.851 -469.57,-62.388C-469.769,-61.512 -469.969,-60.677 -470.168,-59.821C-470.207,-59.642 -470.267,-59.443 -470.307,-59.244C-470.645,-57.751 -470.983,-56.318 -471.282,-54.906C-471.441,-54.109 -471.6,-53.313 -471.779,-52.557C-471.819,-52.398 -471.839,-52.219 -471.879,-52.06C-471.899,-51.98 -471.919,-51.901 -471.919,-51.821C-471.939,-51.721 -471.959,-51.642 -471.959,-51.562C-471.779,-51.463 -471.6,-51.363 -471.421,-51.264C-471.063,-51.085 -470.705,-50.886 -470.347,-50.687C-470.068,-50.527 -469.789,-50.368 -469.511,-50.189C-469.192,-50.01 -468.874,-49.831 -468.556,-49.632C-468.257,-49.433 -467.939,-49.254 -467.62,-49.035C-467.262,-48.836 -466.904,-48.597 -466.566,-48.358C-466.187,-48.099 -465.809,-47.861 -465.431,-47.582C-464.755,-47.144 -464.078,-46.647 -463.421,-46.149C-462.924,-45.751 -462.406,-45.373 -461.909,-44.975C-461.391,-44.557 -460.894,-44.139 -460.377,-43.721C-460.058,-43.443 -459.72,-43.164 -459.382,-42.866C-458.725,-42.309 -458.088,-41.712 -457.451,-41.095C-457.133,-40.796 -456.794,-40.498 -456.476,-40.179C-456.158,-39.861 -455.859,-39.562 -455.541,-39.244C-455.023,-38.726 -454.506,-38.189 -454.008,-37.652C-453.491,-37.115 -452.993,-36.557 -452.496,-36C-451.521,-34.886 -450.546,-33.731 -449.59,-32.537C-449.113,-31.96 -448.655,-31.343 -448.197,-30.726C-447.859,-30.289 -447.521,-29.851 -447.222,-29.393C-447.143,-29.294 -447.063,-29.214 -447.003,-29.115C-446.824,-28.876 -446.665,-28.637 -446.506,-28.398C-446.148,-27.921 -445.829,-27.443 -445.491,-26.965C-445.053,-26.309 -444.635,-25.652 -444.197,-24.995C-443.78,-24.318 -443.362,-23.662 -442.944,-22.965C-442.566,-22.368 -442.207,-21.731 -441.849,-21.115C-441.471,-20.478 -441.113,-19.841 -440.775,-19.204C-440.635,-18.965 -440.496,-18.726 -440.357,-18.468C-439.839,-17.532 -439.342,-16.557 -438.844,-15.562C-438.486,-14.846 -438.128,-14.09 -437.77,-13.334C-437.292,-12.339 -436.814,-11.304 -436.377,-10.269C-436.217,-9.911 -436.058,-9.552 -435.919,-9.194C-435.68,-8.657 -435.461,-8.14 -435.242,-7.602C-434.804,-6.528 -434.367,-5.433 -433.969,-4.319C-433.551,-3.204 -433.153,-2.09 -432.775,-0.955C-432.416,0.119 -432.078,1.194 -431.74,2.268C-431.7,2.348 -431.68,2.428 -431.66,2.487C-431.481,3.084 -431.322,3.662 -431.143,4.239C-431.023,4.657 -430.904,5.094 -430.785,5.512C-430.705,5.811 -430.625,6.089 -430.546,6.388C-430.247,7.462 -429.969,8.517 -429.71,9.592C-429.571,10.189 -429.431,10.806 -429.292,11.403C-429.173,11.88 -429.073,12.358 -428.974,12.836C-428.914,13.094 -428.854,13.353 -428.795,13.612C-428.695,14.109 -428.595,14.587 -428.496,15.084C-428.377,15.701 -428.257,16.318 -428.158,16.935C-428.038,17.552 -427.919,18.169 -427.819,18.806C-427.72,19.423 -427.62,20.059 -427.521,20.696L-427.461,20.995L-427.461,21.015C-427.242,22.467 -427.043,23.94 -426.864,25.413C-426.824,25.751 -426.785,26.089 -426.745,26.428C-426.665,27.064 -426.605,27.701 -426.546,28.358C-426.486,28.995 -426.426,29.651 -426.367,30.308C-426.307,30.965 -426.247,31.622 -426.227,32.278C-426.088,34.189 -425.989,36.139 -425.929,38.089C-425.909,38.746 -425.889,39.403 -425.889,40.059C-425.869,40.199 -425.869,40.358 -425.889,40.517L-425.889,40.577C-425.869,40.577 -425.869,40.597 -425.889,40.617C-425.869,40.895 -425.869,41.154 -425.869,41.432L-425.869,42.248C-425.869,43.104 -425.889,43.96 -425.889,44.816C-425.909,45.671 -425.929,46.527 -425.969,47.383C-425.969,48.02 -426.008,48.656 -426.048,49.293C-426.068,49.85 -426.088,50.408 -426.128,50.965C-426.168,51.522 -426.207,52.079 -426.247,52.636C-426.247,52.656 -426.247,52.696 -426.267,52.736C-426.267,53.054 -426.307,53.393 -426.327,53.711C-426.327,53.751 -426.327,53.791 -426.347,53.81C-426.367,54.209 -426.406,54.587 -426.446,54.965C-426.546,56.199 -426.665,57.432 -426.824,58.626C-426.884,59.243 -426.964,59.84 -427.043,60.457C-427.043,60.577 -427.063,60.696 -427.083,60.815C-427.143,61.293 -427.202,61.751 -427.282,62.209C-427.282,62.288 -427.302,62.368 -427.322,62.447C-427.441,63.243 -427.561,64.019 -427.68,64.815C-427.819,65.592 -427.939,66.368 -428.078,67.144C-428.237,68.079 -428.416,68.995 -428.615,69.93C-428.755,70.606 -428.894,71.303 -429.033,71.98C-429.053,72.039 -429.053,72.119 -429.073,72.179C-429.212,72.796 -429.352,73.432 -429.511,74.069C-429.531,74.149 -429.551,74.228 -429.571,74.308C-429.71,74.885 -429.849,75.462 -430.008,76.039C-430.148,76.616 -430.287,77.193 -430.446,77.751C-430.745,78.905 -431.063,80.039 -431.421,81.154C-431.62,81.91 -431.859,82.646 -432.098,83.383C-432.337,84.119 -432.576,84.855 -432.834,85.592C-433.312,87.044 -433.829,88.477 -434.387,89.89C-434.924,91.323 -435.481,92.696 -436.078,94.069C-436.377,94.766 -436.675,95.442 -436.994,96.119C-437.292,96.795 -437.61,97.472 -437.929,98.129C-439.183,100.795 -440.536,103.363 -441.989,105.83C-442.327,106.447 -442.705,107.044 -443.063,107.641C-443.68,108.656 -444.317,109.671 -444.993,110.666C-445.093,110.845 -445.212,111.024 -445.352,111.203C-446.128,112.377 -446.924,113.492 -447.74,114.606C-448.138,115.144 -448.536,115.661 -448.934,116.198C-449.312,116.696 -449.71,117.173 -450.108,117.651C-450.307,117.91 -450.526,118.188 -450.765,118.447C-451.123,118.905 -451.501,119.343 -451.879,119.78C-452.197,120.159 -452.536,120.517 -452.854,120.895C-453.292,121.392 -453.75,121.87 -454.187,122.348C-454.645,122.825 -455.103,123.283 -455.561,123.761C-456.496,124.696 -457.431,125.591 -458.367,126.467L-458.386,126.467C-459.342,127.343 -460.297,128.159 -461.292,128.955C-461.789,129.372 -462.287,129.751 -462.784,130.149C-463.76,130.905 -464.774,131.661 -465.809,132.358C-466.247,132.636 -466.685,132.935 -467.123,133.193C-467.401,133.392 -467.68,133.571 -467.978,133.751C-468.416,134.029 -468.874,134.308 -469.332,134.586C-469.352,134.586 -469.352,134.606 -469.371,134.606C-469.829,134.885 -470.287,135.144 -470.764,135.382C-470.964,135.522 -471.182,135.621 -471.381,135.741C-471.68,135.9 -471.978,136.059 -472.297,136.218C-472.357,136.258 -472.436,136.298 -472.516,136.318C-472.774,136.477 -473.053,136.596 -473.312,136.736L-473.332,136.736C-473.73,136.955 -474.148,137.134 -474.566,137.333C-474.705,137.412 -474.864,137.472 -475.023,137.532C-475.381,137.691 -475.76,137.85 -476.118,138.009C-476.496,138.168 -476.874,138.328 -477.252,138.467C-477.69,138.666 -478.128,138.825 -478.546,138.984C-479.182,139.223 -479.819,139.442 -480.456,139.641C-481.312,139.94 -482.187,140.198 -483.043,140.417C-483.481,140.537 -483.899,140.656 -484.337,140.755C-484.774,140.855 -485.212,140.974 -485.65,141.054C-486.207,141.173 -486.745,141.293 -487.302,141.392C-487.819,141.492 -488.337,141.571 -488.874,141.651C-489.67,141.77 -490.486,141.87 -491.302,141.95C-491.859,142.009 -492.396,142.049 -492.954,142.089C-493.411,142.129 -493.869,142.149 -494.347,142.168C-494.506,142.188 -494.665,142.188 -494.824,142.188C-495.342,142.208 -495.879,142.208 -496.396,142.208C-505.968,142.208 -515.083,139.502 -523.421,134.586C-521.749,137.969 -520.018,141.293 -518.207,144.576C-471.521,229.511 -379.004,287.362 -272.497,287.362C-118.985,287.362 5.493,167.203 5.493,18.965C5.493,-2.508 2.866,-23.383 -2.07,-43.403" style="fill:rgb(98,6,19);fill-rule:nonzero;"/>
        </g>
        <g transform="matrix(1,0,0,1,817.868,399.07)">
            <path d="M0,28.936L-63.343,33.652L-34.05,-4.716C-32.06,-3.163 -30.089,-1.591 -28.139,0.061C-27.602,0.498 -27.084,0.936 -26.567,1.394C-26.388,1.533 -26.209,1.692 -26.03,1.852C-25.453,2.329 -24.895,2.827 -24.318,3.324C-23.88,3.722 -23.443,4.1 -23.025,4.498C-22.846,4.658 -22.667,4.817 -22.487,4.976C-21.831,5.573 -21.174,6.17 -20.537,6.787C-19.801,7.444 -19.065,8.14 -18.348,8.837C-16.915,10.21 -15.502,11.623 -14.089,13.036C-12.696,14.468 -11.303,15.941 -9.93,17.394C-8.557,18.886 -7.204,20.399 -5.871,21.911C-5.234,22.628 -4.597,23.364 -3.98,24.1C-3.284,24.916 -2.607,25.732 -1.93,26.568C-1.293,27.344 -0.637,28.14 0,28.936" style="fill:rgb(241,242,242);fill-rule:nonzero;"/>
        </g>
        <g transform="matrix(1,0,0,1,639.5,543.509)">
            <path d="M0,32.994L-20.537,2.865L50.667,-73.812L-53.413,-64.22L-46.567,-97.095L57.512,-109.413L87.642,-68.319L0,32.994ZM226.148,-3.822C225.611,-7.483 224.994,-11.165 224.298,-14.827C223.999,-16.359 223.681,-17.852 223.362,-19.364C223.143,-20.439 222.905,-21.493 222.666,-22.568C222.546,-23.105 222.407,-23.662 222.268,-24.22C222.268,-24.299 222.248,-24.379 222.208,-24.439C222.069,-25.135 221.91,-25.812 221.731,-26.488C221.711,-26.608 221.691,-26.707 221.651,-26.827C221.512,-27.384 221.372,-27.941 221.213,-28.518C221.034,-29.274 220.835,-30.051 220.636,-30.807C220.477,-31.384 220.318,-31.961 220.178,-32.518C220.019,-33.095 219.86,-33.652 219.701,-34.23C219.701,-34.249 219.681,-34.269 219.681,-34.289C219.581,-34.628 219.502,-34.966 219.382,-35.304L219.382,-35.364C219.362,-35.443 219.343,-35.523 219.323,-35.583C219.283,-35.662 219.263,-35.722 219.243,-35.802C219.203,-35.981 219.143,-36.16 219.104,-36.339C219.044,-36.538 218.984,-36.757 218.925,-36.956C218.188,-39.463 217.412,-41.951 216.596,-44.419C216.318,-45.235 216.039,-46.07 215.76,-46.886C215.502,-47.682 215.223,-48.478 214.945,-49.274C214.706,-49.971 214.447,-50.667 214.188,-51.364C214.069,-51.702 213.949,-52.04 213.81,-52.399C213.412,-53.473 213.014,-54.568 212.576,-55.642C212.318,-56.359 212.039,-57.075 211.741,-57.772C211.382,-58.727 210.984,-59.662 210.606,-60.618C209.969,-62.19 209.293,-63.742 208.616,-65.314C208.178,-66.289 207.721,-67.284 207.283,-68.259C206.746,-69.433 206.188,-70.588 205.651,-71.742C205.631,-71.802 205.611,-71.861 205.591,-71.901C205.552,-72.001 205.492,-72.1 205.452,-72.2C205.412,-72.239 205.392,-72.279 205.372,-72.339C205.074,-72.956 204.775,-73.593 204.477,-74.21C204.039,-75.125 203.581,-76.02 203.144,-76.896C201.93,-79.284 200.696,-81.632 199.422,-83.921C199.064,-84.598 198.686,-85.254 198.308,-85.931L106.806,-77.911L80.796,-117.632L114.189,-168.259C82.965,-184.02 48.04,-189.93 13.055,-183.145C11.761,-182.906 10.488,-182.647 9.234,-182.368C8.597,-182.229 7.96,-182.09 7.323,-181.931C6.905,-181.831 6.488,-181.732 6.07,-181.632C5.592,-181.533 5.134,-181.413 4.677,-181.294C4.497,-181.234 4.318,-181.194 4.139,-181.154C3.562,-180.995 2.985,-180.856 2.408,-180.697C2.09,-180.617 1.771,-180.518 1.453,-180.438C1.015,-180.319 0.597,-180.199 0.159,-180.08C-0.298,-179.941 -0.776,-179.801 -1.254,-179.662C-1.831,-179.483 -2.408,-179.304 -2.985,-179.125C-3.264,-179.045 -3.562,-178.965 -3.841,-178.866C-4.179,-178.766 -4.497,-178.667 -4.816,-178.547C-5.512,-178.329 -6.209,-178.11 -6.885,-177.871C-7.682,-177.592 -8.497,-177.334 -9.294,-177.035C-10.786,-176.498 -12.279,-175.941 -13.751,-175.363C-14.189,-175.184 -14.627,-175.005 -15.065,-174.826C-16,-174.448 -16.935,-174.07 -17.851,-173.672C-19.761,-172.856 -21.652,-172 -23.522,-171.105C-23.881,-170.946 -24.239,-170.766 -24.597,-170.587C-24.696,-170.547 -24.776,-170.488 -24.876,-170.448C-25.492,-170.149 -26.109,-169.831 -26.726,-169.533C-27.363,-169.214 -27.98,-168.876 -28.597,-168.557C-28.677,-168.518 -28.756,-168.478 -28.836,-168.438C-29.811,-167.921 -30.786,-167.403 -31.741,-166.866C-32.259,-166.587 -32.756,-166.309 -33.254,-166.03C-34.965,-165.055 -36.657,-164.04 -38.308,-163.005L-39.741,-162.13C-41.234,-161.174 -42.726,-160.199 -44.199,-159.184C-44.497,-158.985 -44.796,-158.766 -45.114,-158.548C-45.453,-158.309 -45.791,-158.07 -46.129,-157.831C-47.681,-156.757 -49.214,-155.622 -50.706,-154.488C-51.104,-154.169 -51.522,-153.871 -51.92,-153.553C-52.318,-153.234 -52.716,-152.936 -53.114,-152.617C-58.806,-148.14 -64.199,-143.264 -69.293,-138.03C-70.925,-136.359 -72.537,-134.627 -74.129,-132.856C-74.288,-132.697 -74.428,-132.538 -74.567,-132.378C-74.925,-131.961 -75.283,-131.563 -75.622,-131.165C-75.681,-131.105 -75.741,-131.045 -75.781,-130.985C-76.199,-130.508 -76.617,-130.03 -77.034,-129.553C-77.214,-129.314 -77.413,-129.095 -77.612,-128.856C-77.811,-128.617 -78.01,-128.398 -78.189,-128.16C-78.607,-127.682 -79.005,-127.185 -79.423,-126.687C-79.821,-126.189 -80.219,-125.692 -80.617,-125.194C-81.034,-124.677 -81.433,-124.18 -81.831,-123.662C-82.229,-123.165 -82.627,-122.647 -83.005,-122.15C-83.124,-121.99 -83.243,-121.851 -83.343,-121.712C-83.383,-121.652 -83.423,-121.612 -83.462,-121.553C-83.582,-121.393 -83.701,-121.234 -83.821,-121.075C-83.841,-121.055 -83.86,-121.015 -83.9,-120.995C-83.98,-120.856 -84.079,-120.717 -84.179,-120.597C-84.199,-120.578 -84.219,-120.558 -84.238,-120.518C-84.577,-120.1 -84.875,-119.662 -85.194,-119.204C-85.532,-118.767 -85.85,-118.329 -86.169,-117.891C-86.766,-117.075 -87.343,-116.239 -87.92,-115.403C-88.039,-115.244 -88.179,-115.065 -88.298,-114.886C-88.537,-114.528 -88.776,-114.17 -89.015,-113.831C-89.492,-113.115 -89.97,-112.418 -90.428,-111.702C-90.706,-111.304 -90.965,-110.886 -91.243,-110.488C-91.363,-110.269 -91.502,-110.07 -91.622,-109.871C-91.741,-109.712 -91.84,-109.553 -91.94,-109.394C-91.96,-109.354 -91.98,-109.334 -92,-109.294C-92.338,-108.777 -92.656,-108.259 -92.995,-107.722C-93.711,-106.607 -94.408,-105.473 -95.084,-104.319C-95.403,-103.782 -95.721,-103.224 -96.039,-102.687C-97.174,-100.777 -98.268,-98.826 -99.323,-96.856C-99.721,-96.12 -100.119,-95.364 -100.517,-94.588C-100.716,-94.209 -100.915,-93.811 -101.114,-93.413C-101.631,-92.438 -102.129,-91.463 -102.607,-90.468C-102.845,-90.011 -103.064,-89.553 -103.283,-89.095C-103.562,-88.518 -103.84,-87.921 -104.119,-87.344C-104.318,-86.906 -104.537,-86.488 -104.716,-86.05C-104.955,-85.513 -105.214,-84.976 -105.452,-84.419C-105.89,-83.503 -106.288,-82.568 -106.706,-81.632C-106.806,-81.394 -106.905,-81.175 -106.985,-80.936C-107.044,-80.817 -107.104,-80.677 -107.164,-80.558C-107.582,-79.603 -107.98,-78.627 -108.378,-77.672C-108.636,-77.055 -108.875,-76.418 -109.134,-75.802C-109.711,-74.309 -110.288,-72.836 -110.826,-71.344C-111.044,-70.787 -111.243,-70.229 -111.442,-69.692C-111.741,-68.896 -112.019,-68.1 -112.298,-67.324C-112.378,-67.045 -112.477,-66.787 -112.557,-66.528C-112.656,-66.249 -112.736,-65.991 -112.835,-65.712C-112.895,-65.513 -112.975,-65.294 -113.034,-65.095C-113.114,-64.896 -113.174,-64.697 -113.253,-64.478C-113.333,-64.239 -113.413,-63.981 -113.492,-63.722C-113.631,-63.324 -113.771,-62.906 -113.91,-62.508C-114.069,-62.031 -114.208,-61.573 -114.368,-61.095C-114.825,-59.563 -115.303,-58.05 -115.741,-56.518C-115.92,-55.861 -116.119,-55.205 -116.298,-54.528C-116.497,-53.871 -116.676,-53.195 -116.855,-52.558C-117.074,-51.702 -117.293,-50.846 -117.512,-49.991C-117.552,-49.871 -117.572,-49.752 -117.612,-49.632C-117.612,-49.593 -117.631,-49.573 -117.631,-49.533C-117.651,-49.493 -117.651,-49.434 -117.671,-49.394C-117.671,-49.354 -117.691,-49.334 -117.691,-49.294C-117.691,-49.294 -117.711,-49.274 -117.711,-49.254C-117.87,-48.657 -118.01,-48.04 -118.149,-47.443C-118.228,-47.145 -118.308,-46.827 -118.388,-46.528C-118.487,-46.11 -118.587,-45.692 -118.686,-45.274C-119.064,-43.623 -119.422,-41.991 -119.761,-40.339C-119.86,-39.901 -119.94,-39.443 -120.039,-39.006C-120.179,-38.309 -120.318,-37.633 -120.437,-36.936C-120.497,-36.717 -120.517,-36.518 -120.557,-36.319C-120.736,-35.384 -120.915,-34.429 -121.074,-33.473C-121.094,-33.394 -121.114,-33.294 -121.134,-33.215C-121.293,-32.24 -121.472,-31.264 -121.631,-30.269C-121.751,-29.513 -121.87,-28.757 -121.97,-28.021C-122.089,-27.324 -122.189,-26.628 -122.288,-25.931C-122.368,-25.414 -122.427,-24.876 -122.487,-24.359C-122.587,-23.762 -122.666,-23.145 -122.726,-22.548C-122.825,-21.852 -122.905,-21.175 -122.985,-20.478C-123.044,-19.981 -123.104,-19.483 -123.164,-18.986C-123.203,-18.468 -123.263,-17.991 -123.323,-17.493C-123.323,-17.394 -123.343,-17.314 -123.343,-17.215C-123.383,-16.837 -123.422,-16.458 -123.462,-16.1C-123.482,-15.842 -123.502,-15.603 -123.522,-15.364C-123.602,-14.488 -123.681,-13.613 -123.761,-12.737C-123.84,-11.862 -123.9,-10.986 -123.96,-10.09C-123.96,-10.011 -123.98,-9.911 -123.98,-9.832C-123.98,-9.732 -124,-9.613 -124,-9.513C-124.019,-9.314 -124.019,-9.135 -124.039,-8.936C-124.059,-8.717 -124.059,-8.478 -124.079,-8.26C-124.139,-7.125 -124.218,-6.011 -124.278,-4.876L-124.278,-4.638C-124.338,-3.483 -124.378,-2.329 -124.417,-1.175C-124.437,-0.598 -124.457,-0.001 -124.457,0.596L-124.457,0.676C-124.457,0.795 -124.477,0.934 -124.477,1.074C-124.477,1.332 -124.477,1.611 -124.497,1.87C-124.497,2.586 -124.517,3.323 -124.517,4.039C-124.537,4.696 -124.537,5.332 -124.537,5.989C-124.537,7.084 -124.537,8.178 -124.517,9.293C-124.497,10.148 -124.477,11.004 -124.457,11.86C-124.437,12.775 -124.417,13.73 -124.378,14.666C-124.358,15.203 -124.338,15.74 -124.318,16.278C-124.298,16.696 -124.278,17.094 -124.258,17.492C-124.218,18.347 -124.179,19.203 -124.119,20.059C-124.059,21.094 -124,22.128 -123.92,23.163C-123.86,24.039 -123.8,24.914 -123.721,25.79C-123.701,25.89 -123.701,25.989 -123.701,26.089C-123.681,26.148 -123.681,26.228 -123.681,26.288C-123.482,28.596 -123.243,30.944 -122.985,33.293C-122.845,34.467 -122.706,35.621 -122.547,36.795C-122.407,37.969 -122.248,39.143 -122.069,40.317C-122.029,40.556 -121.99,40.795 -121.97,41.034C-121.85,41.75 -121.731,42.487 -121.631,43.203C-121.572,43.501 -121.532,43.8 -121.492,44.098C-121.353,44.934 -121.214,45.75 -121.074,46.586C-121.015,46.885 -120.975,47.203 -120.915,47.501C-120.656,48.954 -120.398,50.387 -120.119,51.84C-119.94,52.775 -119.741,53.71 -119.562,54.646C-118.607,59.342 -117.512,63.939 -116.298,68.476C-115.203,72.576 -114.01,76.616 -112.716,80.596C-112.298,81.909 -111.84,83.223 -111.403,84.536C-110.487,87.163 -109.552,89.75 -108.577,92.317C-108.238,93.173 -107.9,94.029 -107.562,94.884C-106.786,96.835 -105.99,98.745 -105.174,100.655C-104.875,101.352 -104.577,102.049 -104.278,102.745C-103.661,104.118 -103.044,105.491 -102.427,106.845C-102.109,107.521 -101.771,108.198 -101.452,108.894C-100.895,110.068 -100.318,111.242 -99.741,112.417C-98.587,114.745 -97.393,117.054 -96.159,119.322C-95.542,120.476 -94.925,121.591 -94.288,122.725L-94.288,122.745C-93.194,124.675 -92.099,126.586 -90.965,128.456C-89.074,131.601 -87.104,134.685 -85.074,137.69C-84.278,138.904 -83.462,140.098 -82.627,141.272C-68.875,160.914 -52.358,177.67 -33.97,190.804C-32.398,191.919 -30.826,192.993 -29.234,194.068C-25.851,196.337 -22.408,198.466 -18.905,200.496C-17.91,201.073 -16.915,201.63 -15.9,202.187C-13.99,203.242 -12.04,204.277 -10.07,205.272C-8.915,205.849 -7.741,206.426 -6.547,206.984C-6.507,207.023 -6.428,207.043 -6.368,207.083C-5.214,207.62 -4.04,208.158 -2.866,208.695C-1.731,209.192 -0.617,209.69 0.517,210.168C10.985,214.585 21.811,217.929 32.856,220.078C37.154,220.914 41.473,221.57 45.831,222.048C47.263,222.207 48.676,222.327 50.109,222.426C51.303,222.526 52.497,222.625 53.691,222.685C53.91,222.705 54.109,222.705 54.328,222.705C55.303,222.765 56.278,222.804 57.254,222.844C57.89,222.864 58.507,222.884 59.144,222.904L59.443,222.904C60.418,222.924 61.393,222.924 62.388,222.924C64.159,222.924 65.93,222.884 67.701,222.824C69.492,222.765 71.263,222.665 73.055,222.546C74.268,222.466 75.482,222.367 76.696,222.247C77.89,222.148 79.084,222.008 80.258,221.869C81.472,221.73 82.686,221.57 83.9,221.391C85.114,221.212 86.308,221.033 87.502,220.814C88.716,220.615 89.91,220.396 91.104,220.158C94.288,219.541 97.413,218.844 100.477,218.048L100.497,218.048C101.671,217.73 102.806,217.431 103.96,217.113C105.094,216.775 106.228,216.436 107.363,216.078L107.383,216.078C108.895,215.6 110.368,215.123 111.86,214.605C120.079,211.779 127.94,208.257 135.442,204.118C136.477,203.561 137.492,202.984 138.507,202.406C139.502,201.829 140.497,201.232 141.492,200.615C142.169,200.217 142.825,199.799 143.482,199.382C144.795,198.566 146.109,197.71 147.402,196.834C148.378,196.197 149.333,195.521 150.288,194.844C153.154,192.814 155.94,190.705 158.686,188.496C160.517,187.023 162.328,185.491 164.099,183.939C168.537,180.038 172.776,175.879 176.815,171.481C177.611,170.605 178.407,169.71 179.203,168.814C178.865,168.775 178.527,168.735 178.208,168.675C177.89,168.635 177.591,168.576 177.293,168.536C176.417,168.397 175.542,168.237 174.666,168.058C173.432,167.8 172.218,167.521 171.004,167.202C170.567,167.103 170.149,166.984 169.711,166.844C169.472,166.785 169.213,166.705 168.975,166.645C168.358,166.466 167.741,166.267 167.104,166.048C166.268,165.79 165.432,165.491 164.596,165.193C164.178,165.033 163.741,164.854 163.303,164.695C162.348,164.317 161.393,163.919 160.437,163.501C160.019,163.302 159.601,163.123 159.184,162.924C158.925,162.805 158.686,162.685 158.447,162.566C158.009,162.367 157.591,162.168 157.174,161.969C154.706,160.735 152.278,159.362 149.93,157.829C149.392,157.511 148.875,157.173 148.358,156.834C147.88,156.496 147.402,156.178 146.925,155.839C146.467,155.521 146.009,155.183 145.552,154.864C144.139,153.829 142.746,152.735 141.373,151.601C140.915,151.223 140.477,150.844 140.039,150.446C139.582,150.068 139.144,149.67 138.706,149.272C138.268,148.894 137.83,148.476 137.393,148.078C136.955,147.68 136.517,147.262 136.099,146.844C135.661,146.426 135.243,146.009 134.825,145.591C133.552,144.317 132.318,142.984 131.104,141.63C130.288,140.715 129.512,139.78 128.736,138.825C127.96,137.889 127.184,136.934 126.427,135.939C125.93,135.302 125.452,134.645 124.995,133.989C124.835,133.79 124.696,133.571 124.557,133.372C124.079,132.715 123.621,132.058 123.164,131.382C122.447,130.347 121.751,129.292 121.074,128.218C120.398,127.163 119.761,126.068 119.104,124.954C118.467,123.859 117.83,122.725 117.233,121.611C116.915,120.994 116.597,120.397 116.298,119.8C116,119.243 115.721,118.685 115.462,118.128C114.845,116.914 114.268,115.66 113.711,114.387C113.492,113.909 113.293,113.452 113.094,112.974C112.796,112.297 112.497,111.641 112.219,110.964C111.9,110.148 111.582,109.332 111.263,108.516C111.164,108.277 111.084,108.019 110.985,107.78C110.666,106.984 110.388,106.168 110.109,105.332C109.751,104.297 109.393,103.243 109.054,102.188C108.776,101.312 108.497,100.437 108.238,99.541C107.98,98.646 107.741,97.77 107.502,96.874C107.442,96.656 107.383,96.437 107.323,96.198C107.084,95.322 106.865,94.447 106.646,93.571C106.487,92.855 106.328,92.138 106.169,91.422C106.049,90.924 105.95,90.447 105.85,89.949C105.671,89.113 105.512,88.277 105.353,87.422C95.681,35.004 121.91,-13.792 163.92,-21.533C168.238,-22.329 172.537,-22.667 176.815,-22.568C177.193,-22.568 177.572,-22.548 177.95,-22.528C178.248,-22.528 178.547,-22.508 178.865,-22.488C179.442,-22.468 179.999,-22.429 180.577,-22.369C181.154,-22.329 181.711,-22.269 182.288,-22.21C182.686,-22.17 183.064,-22.11 183.462,-22.07C183.8,-22.031 184.139,-21.971 184.477,-21.931C186.945,-21.573 189.432,-21.055 191.86,-20.419C192.218,-20.339 192.557,-20.24 192.915,-20.14C194.626,-19.662 196.298,-19.105 197.969,-18.508C198.288,-18.389 198.606,-18.269 198.905,-18.15C200.139,-17.692 201.333,-17.195 202.527,-16.677C203.621,-16.2 204.696,-15.682 205.75,-15.145C206.288,-14.886 206.825,-14.608 207.362,-14.329C207.88,-14.031 208.417,-13.752 208.935,-13.454C209.472,-13.155 209.989,-12.857 210.507,-12.558C211.502,-11.981 212.497,-11.364 213.472,-10.707C214.029,-10.369 214.586,-9.991 215.124,-9.613C215.621,-9.274 216.119,-8.936 216.616,-8.578C217.631,-7.842 218.626,-7.105 219.621,-6.309C220.039,-5.991 220.437,-5.673 220.835,-5.334C221.173,-5.075 221.492,-4.797 221.81,-4.538C222.208,-4.2 222.606,-3.862 223.004,-3.523C223.422,-3.165 223.82,-2.787 224.238,-2.429C225.054,-1.712 225.85,-0.956 226.646,-0.18C226.487,-1.394 226.328,-2.608 226.148,-3.822" style="fill:rgb(241,242,242);fill-rule:nonzero;"/>
        </g>
        <g transform="matrix(1,0,0,1,868.196,658.394)">
            <path d="M0,-83.622L0,-83.025C0,-82.707 0,-82.408 -0.02,-82.09C-0.02,-81.353 -0.02,-80.637 -0.04,-79.92C-0.04,-79.284 -0.06,-78.667 -0.08,-78.05C-0.1,-77.453 -0.119,-76.836 -0.139,-76.219L-0.139,-76.139C-0.179,-75.045 -0.219,-73.97 -0.279,-72.896C-0.279,-72.577 -0.299,-72.259 -0.318,-71.921C-0.318,-71.841 -0.338,-71.741 -0.338,-71.662C-0.358,-71.324 -0.378,-71.005 -0.398,-70.687L-0.458,-69.552C-0.478,-69.174 -0.497,-68.796 -0.537,-68.418L-0.537,-68.279C-0.597,-67.582 -0.637,-66.886 -0.697,-66.169C-0.697,-66.129 -0.697,-66.07 -0.716,-66.03C-0.716,-65.831 -0.736,-65.632 -0.756,-65.433C-0.776,-65.075 -0.816,-64.736 -0.836,-64.398C-0.836,-64.358 -0.856,-64.299 -0.856,-64.259C-0.876,-64.02 -0.896,-63.761 -0.915,-63.522C-0.955,-63.065 -0.995,-62.627 -1.035,-62.189C-1.075,-61.751 -1.134,-61.294 -1.174,-60.856C-1.194,-60.637 -1.214,-60.418 -1.234,-60.199C-1.353,-59.105 -1.473,-58.03 -1.592,-56.955C-1.632,-56.697 -1.652,-56.438 -1.692,-56.199C-1.711,-56.04 -1.731,-55.901 -1.751,-55.741C-1.871,-54.766 -1.99,-53.811 -2.129,-52.836C-2.249,-51.921 -2.388,-50.985 -2.527,-50.07C-2.667,-49.154 -2.806,-48.219 -2.945,-47.324C-3.085,-46.508 -3.224,-45.712 -3.363,-44.896C-3.642,-43.324 -3.92,-41.731 -4.239,-40.159C-4.478,-38.906 -4.736,-37.632 -5.015,-36.378C-5.015,-36.339 -5.035,-36.279 -5.035,-36.239C-5.055,-36.139 -5.075,-36.06 -5.094,-35.96C-5.373,-34.707 -5.652,-33.433 -5.95,-32.199C-5.99,-32.06 -6.01,-31.921 -6.05,-31.781C-6.309,-30.687 -6.567,-29.592 -6.846,-28.518C-6.945,-28.16 -7.025,-27.801 -7.124,-27.463C-7.144,-27.344 -7.184,-27.224 -7.224,-27.105C-7.503,-26.03 -7.781,-24.975 -8.08,-23.921L-8.08,-23.901C-8.497,-22.388 -8.915,-20.876 -9.373,-19.383C-9.373,-19.363 -9.373,-19.363 -9.393,-19.363C-9.831,-17.851 -10.308,-16.378 -10.786,-14.886L-10.786,-14.866C-11.025,-14.13 -11.284,-13.373 -11.522,-12.637C-11.96,-11.344 -12.418,-10.07 -12.876,-8.776C-13.055,-8.279 -13.234,-7.762 -13.433,-7.264C-13.473,-7.145 -13.512,-7.025 -13.552,-6.886C-13.751,-6.369 -13.95,-5.851 -14.149,-5.314C-14.328,-4.836 -14.507,-4.359 -14.706,-3.881C-14.905,-3.324 -15.124,-2.767 -15.343,-2.229C-15.483,-1.871 -15.622,-1.533 -15.781,-1.175C-16.159,-0.239 -16.537,0.696 -16.935,1.631C-16.995,1.811 -17.075,1.97 -17.134,2.129C-17.274,2.428 -17.413,2.746 -17.532,3.044C-17.572,3.144 -17.612,3.223 -17.652,3.303C-18.09,4.298 -18.507,5.293 -18.945,6.268C-19.085,6.587 -19.244,6.925 -19.383,7.243C-19.602,7.701 -19.821,8.179 -20.04,8.656C-20.219,9.034 -20.398,9.393 -20.557,9.751C-20.597,9.85 -20.657,9.97 -20.716,10.069C-20.995,10.646 -21.274,11.224 -21.552,11.801C-21.831,12.378 -22.109,12.955 -22.408,13.532C-22.985,14.726 -23.582,15.9 -24.199,17.074C-24.219,17.074 -24.219,17.094 -24.219,17.094C-24.915,18.427 -25.632,19.761 -26.368,21.074C-26.368,21.094 -26.368,21.094 -26.388,21.094C-26.687,21.631 -26.985,22.169 -27.284,22.706C-27.582,23.243 -27.9,23.761 -28.219,24.298C-28.557,24.935 -28.935,25.532 -29.293,26.169C-29.333,26.228 -29.373,26.308 -29.413,26.368C-29.512,26.547 -29.632,26.726 -29.731,26.905C-29.751,26.925 -29.771,26.945 -29.771,26.965C-30.169,27.602 -30.547,28.258 -30.945,28.895C-31.741,30.169 -32.537,31.442 -33.373,32.696C-33.771,33.313 -34.169,33.95 -34.587,34.567C-35.423,35.82 -36.279,37.054 -37.134,38.248C-37.99,39.482 -38.846,40.676 -39.741,41.87L-39.741,41.89C-40.617,43.064 -41.512,44.238 -42.428,45.412L-42.428,45.432C-43.005,46.149 -43.562,46.885 -44.139,47.581C-45.293,49.034 -46.487,50.447 -47.681,51.86C-48.278,52.537 -48.875,53.233 -49.492,53.93C-49.831,53.89 -50.169,53.85 -50.487,53.791C-50.806,53.751 -51.104,53.691 -51.403,53.651C-52.278,53.512 -53.154,53.353 -54.03,53.174C-55.263,52.915 -56.477,52.636 -57.691,52.318C-58.129,52.218 -58.547,52.099 -58.985,51.96C-59.224,51.9 -59.482,51.82 -59.721,51.761C-60.338,51.582 -60.955,51.383 -61.592,51.164C-62.428,50.905 -63.263,50.606 -64.099,50.308C-64.517,50.149 -64.955,49.97 -65.393,49.81C-66.348,49.432 -67.303,49.034 -68.259,48.616C-68.676,48.417 -69.094,48.238 -69.512,48.039C-69.771,47.92 -70.01,47.8 -70.249,47.681C-70.686,47.482 -71.104,47.283 -71.522,47.084C-73.99,45.85 -76.418,44.477 -78.766,42.945C-79.303,42.626 -79.821,42.288 -80.338,41.95C-80.816,41.611 -81.293,41.293 -81.771,40.955C-82.229,40.636 -82.686,40.298 -83.144,39.98C-84.557,38.945 -85.95,37.85 -87.323,36.716C-87.781,36.338 -88.219,35.96 -88.656,35.562C-89.114,35.184 -89.552,34.786 -89.99,34.388C-90.428,34.01 -90.865,33.592 -91.303,33.194C-91.741,32.795 -92.179,32.378 -92.597,31.96C-93.034,31.542 -93.452,31.124 -93.87,30.706C-95.144,29.432 -96.378,28.099 -97.592,26.746C-98.408,25.83 -99.184,24.895 -99.96,23.94C-100.736,23.005 -101.512,22.049 -102.268,21.054C-102.766,20.417 -103.243,19.761 -103.701,19.104C-103.86,18.905 -104,18.686 -104.139,18.487C-104.617,17.83 -105.074,17.174 -105.532,16.497C-106.248,15.462 -106.945,14.408 -107.622,13.333C-108.298,12.278 -108.935,11.184 -109.592,10.069C-110.228,8.975 -110.845,7.84 -111.462,6.726C-111.781,6.109 -112.099,5.512 -112.398,4.915C-112.696,4.358 -112.975,3.801 -113.233,3.243C-113.85,2.03 -114.427,0.776 -114.985,-0.498C-115.204,-0.975 -115.403,-1.433 -115.602,-1.911C-115.9,-2.587 -116.199,-3.244 -116.477,-3.921C-116.796,-4.737 -117.114,-5.553 -117.432,-6.369C-117.532,-6.607 -117.612,-6.866 -117.711,-7.105C-118.029,-7.901 -118.308,-8.717 -118.587,-9.553C-118.945,-10.587 -119.303,-11.642 -119.641,-12.697C-119.92,-13.572 -120.199,-14.448 -120.457,-15.344C-120.716,-16.239 -120.955,-17.115 -121.194,-18.01C-121.253,-18.229 -121.313,-18.448 -121.373,-18.687C-121.612,-19.563 -121.83,-20.438 -122.049,-21.314C-122.209,-22.03 -122.368,-22.747 -122.527,-23.463C-122.646,-23.96 -122.746,-24.438 -122.845,-24.936C-123.024,-25.771 -123.184,-26.607 -123.343,-27.463C-133.014,-79.881 -106.786,-128.676 -64.776,-136.418C-60.457,-137.214 -56.159,-137.552 -51.88,-137.453C-51.502,-137.453 -51.124,-137.433 -50.746,-137.413C-50.448,-137.413 -50.149,-137.393 -49.831,-137.373C-49.254,-137.353 -48.696,-137.313 -48.119,-137.254C-47.542,-137.214 -46.985,-137.154 -46.408,-137.094C-46.01,-137.055 -45.632,-136.995 -45.234,-136.955C-44.895,-136.915 -44.557,-136.856 -44.219,-136.816C-41.751,-136.458 -39.264,-135.94 -36.836,-135.303C-36.477,-135.224 -36.139,-135.124 -35.781,-135.025C-34.07,-134.547 -32.398,-133.99 -30.726,-133.393C-30.408,-133.273 -30.089,-133.154 -29.791,-133.035C-28.557,-132.577 -27.363,-132.079 -26.169,-131.562C-25.075,-131.084 -24,-130.567 -22.945,-130.03C-22.408,-129.771 -21.871,-129.492 -21.333,-129.214C-20.816,-128.915 -20.279,-128.637 -19.761,-128.338C-19.224,-128.04 -18.706,-127.741 -18.189,-127.443C-17.194,-126.866 -16.199,-126.249 -15.224,-125.592C-14.667,-125.254 -14.109,-124.876 -13.572,-124.497C-13.075,-124.159 -12.577,-123.821 -12.08,-123.463C-11.065,-122.726 -10.07,-121.99 -9.075,-121.194C-8.657,-120.876 -8.259,-120.557 -7.861,-120.219C-7.522,-119.96 -7.204,-119.682 -6.886,-119.423C-6.488,-119.085 -6.09,-118.746 -5.692,-118.408C-5.274,-118.05 -4.876,-117.672 -4.458,-117.313C-3.642,-116.597 -2.846,-115.841 -2.05,-115.065L-2.05,-115.045C-1.93,-114.109 -1.811,-113.174 -1.692,-112.239C-1.572,-111.303 -1.473,-110.368 -1.373,-109.433C-1.154,-107.582 -0.975,-105.711 -0.836,-103.861C-0.756,-102.925 -0.677,-102.01 -0.617,-101.075C-0.557,-100.378 -0.517,-99.682 -0.478,-98.985C-0.438,-98.289 -0.398,-97.592 -0.358,-96.915C-0.318,-96.219 -0.279,-95.522 -0.239,-94.826C-0.219,-94.129 -0.199,-93.433 -0.159,-92.736C-0.119,-91.682 -0.1,-90.627 -0.06,-89.552C-0.04,-88.915 -0.04,-88.299 -0.04,-87.662C-0.02,-87.244 -0.02,-86.806 -0.02,-86.388L-0.02,-85.791C0,-85.055 0,-84.338 0,-83.622" style="fill:rgb(3,4,5);fill-rule:nonzero;"/>
        </g>
        <g transform="matrix(1,0,0,1,837.808,383.27)">
            <path d="M0,74.308L-91.502,82.328L-117.512,42.607L-84.119,-8.02C-81.492,-6.707 -78.885,-5.314 -76.318,-3.861C-75.044,-3.125 -73.751,-2.368 -72.497,-1.632C-72.497,-1.632 -72.497,-1.612 -72.477,-1.612C-71.224,-0.856 -69.95,-0.08 -68.696,0.716C-63.661,3.92 -58.746,7.383 -53.99,11.084L-83.283,49.452L-19.94,44.736C-12.617,53.87 -5.93,63.761 0,74.308" style="fill:rgb(3,4,5);fill-rule:nonzero;"/>
        </g>
        <g transform="matrix(1,0,0,1,999.638,232.73)">
            <path d="M0,29.503C0,130.704 -54.18,218.519 -133.535,262.233C-135.233,255.341 -137.199,248.549 -139.453,241.875C-77.636,209.115 -35.233,141.737 -35.233,63.932C-35.233,-19.682 -84.21,-91.271 -153.624,-120.765C-175.491,-130.059 -199.383,-135.174 -224.408,-135.174C-326.483,-135.174 -409.671,-50.089 -413.444,56.365C-422.709,56.653 -431.865,57.398 -440.862,58.55L-440.892,58.55C-441.359,58.609 -441.825,58.679 -442.292,58.748C-459.67,61.042 -476.522,64.915 -492.739,70.188C-494.695,56.941 -495.708,43.356 -495.708,29.503C-495.708,-115.313 -384.735,-232.73 -247.854,-232.73C-110.973,-232.73 0,-115.313 0,29.503" style="fill:rgb(98,6,19);fill-rule:nonzero;"/>
        </g>
        <g transform="matrix(1,0,0,1,410.812,609.759)">
            <path d="M0,-252.849C-1.797,-251.3 -3.575,-249.731 -5.323,-248.142C-47.994,-209.503 -78.014,-157.993 -88.748,-100.029C-101.588,-81.926 -109.543,-56.852 -109.543,-29.136C-109.543,1.698 -99.692,29.275 -84.21,47.616C-81.638,50.675 -78.907,53.456 -76.037,55.968C-96.772,64.2 -119.284,68.709 -142.8,68.709C-246.345,68.709 -330.287,-18.659 -330.287,-126.425C-330.287,-234.19 -246.345,-321.558 -142.8,-321.558C-85.6,-321.558 -34.379,-294.895 0,-252.849" style="fill:rgb(241,242,242);fill-rule:nonzero;"/>
        </g>
        <g transform="matrix(1,0,0,1,481.676,570.781)">
            <path d="M0,-258.3C-1.38,-257.704 -2.761,-257.089 -4.131,-256.473C-5.015,-256.066 -5.899,-255.658 -6.783,-255.251C-7.924,-254.715 -9.066,-254.179 -10.199,-253.633C-11.321,-253.086 -12.433,-252.54 -13.545,-251.984C-14.379,-251.567 -15.204,-251.15 -16.038,-250.723C-17.686,-249.879 -19.335,-249.015 -20.963,-248.131C-21.787,-247.694 -22.602,-247.247 -23.416,-246.801L-23.426,-246.801C-24.508,-246.205 -25.591,-245.599 -26.663,-244.993C-26.673,-244.993 -26.673,-244.983 -26.683,-244.973L-26.693,-244.973C-26.703,-244.963 -26.713,-244.953 -26.723,-244.953C-42.512,-235.986 -57.289,-225.579 -70.864,-213.871C-105.243,-255.917 -156.464,-282.58 -213.663,-282.58C-317.208,-282.58 -401.15,-195.212 -401.15,-87.447C-401.15,20.318 -317.208,107.687 -213.663,107.687C-190.148,107.687 -167.636,103.178 -146.901,94.946C-143.733,97.716 -140.397,100.149 -136.921,102.185C-135.253,105.561 -133.515,108.888 -131.698,112.175C-160.238,123.029 -191.201,128.977 -223.544,128.977C-366.116,128.977 -481.676,13.417 -481.676,-129.155C-481.676,-271.716 -366.116,-387.277 -223.544,-387.277C-128.033,-387.277 -44.637,-335.41 0,-258.3" style="fill:rgb(98,6,19);fill-rule:nonzero;"/>
        </g>
        <g transform="matrix(1,0,0,1,442.302,581.437)">
            <path d="M0,-1.638L0,-0.824C0,0.04 -0.01,0.894 -0.02,1.758C-0.04,2.612 -0.06,3.466 -0.089,4.32C-0.109,4.956 -0.139,5.591 -0.169,6.227C-0.189,6.793 -0.218,7.349 -0.258,7.905C-0.288,8.461 -0.328,9.017 -0.377,9.573C-0.367,9.603 -0.367,9.643 -0.387,9.673C-0.397,10 -0.427,10.328 -0.457,10.656C-0.447,10.696 -0.457,10.725 -0.467,10.755C-0.497,11.142 -0.526,11.52 -0.566,11.907C-0.675,13.138 -0.804,14.36 -0.943,15.571C-1.013,16.177 -1.092,16.783 -1.162,17.389C-1.172,17.508 -1.192,17.637 -1.211,17.756C-1.261,18.223 -1.331,18.69 -1.41,19.146C-1.41,19.226 -1.42,19.305 -1.44,19.385C-1.559,20.179 -1.678,20.964 -1.807,21.758C-1.936,22.533 -2.065,23.307 -2.205,24.082C-2.363,25.015 -2.542,25.939 -2.741,26.862C-2.88,27.548 -3.019,28.233 -3.168,28.908C-3.178,28.978 -3.188,29.047 -3.208,29.107C-3.347,29.742 -3.486,30.378 -3.644,31.003C-3.654,31.083 -3.674,31.162 -3.704,31.242C-3.843,31.828 -3.982,32.404 -4.131,32.98C-4.27,33.555 -4.419,34.131 -4.578,34.697C-4.876,35.839 -5.194,36.972 -5.541,38.094C-5.77,38.838 -5.998,39.583 -6.226,40.318C-6.465,41.053 -6.703,41.788 -6.951,42.523C-7.448,43.973 -7.974,45.412 -8.51,46.832C-9.057,48.243 -9.623,49.643 -10.208,51.013C-10.506,51.698 -10.804,52.384 -11.112,53.059C-11.42,53.734 -11.728,54.409 -12.046,55.075C-13.317,57.726 -14.667,60.298 -16.107,62.761C-16.455,63.377 -16.822,63.982 -17.19,64.578C-17.805,65.601 -18.441,66.614 -19.116,67.607C-19.225,67.786 -19.344,67.964 -19.474,68.143C-20.248,69.305 -21.043,70.437 -21.867,71.539C-22.264,72.076 -22.661,72.602 -23.068,73.128C-23.446,73.625 -23.833,74.111 -24.23,74.588C-24.439,74.856 -24.657,75.124 -24.886,75.392C-25.243,75.839 -25.621,76.276 -26.008,76.713C-26.326,77.091 -26.653,77.458 -26.981,77.825C-27.418,78.322 -27.875,78.808 -28.322,79.285C-28.768,79.762 -29.225,80.229 -29.692,80.695C-30.616,81.629 -31.549,82.523 -32.502,83.396L-32.512,83.396C-33.466,84.27 -34.429,85.104 -35.412,85.899C-35.908,86.306 -36.405,86.693 -36.901,87.081C-37.904,87.845 -38.917,88.58 -39.94,89.285C-40.367,89.583 -40.804,89.871 -41.241,90.139C-41.519,90.338 -41.807,90.517 -42.095,90.685C-42.542,90.973 -42.999,91.251 -43.466,91.519C-43.475,91.529 -43.485,91.539 -43.495,91.539C-43.952,91.817 -44.419,92.076 -44.886,92.324C-45.094,92.453 -45.303,92.562 -45.511,92.671C-45.809,92.84 -46.107,92.999 -46.415,93.148C-46.484,93.188 -46.554,93.227 -46.633,93.257C-46.901,93.406 -47.17,93.535 -47.448,93.674L-47.458,93.674C-47.865,93.883 -48.272,94.072 -48.689,94.26C-48.838,94.34 -48.997,94.409 -49.156,94.469C-49.513,94.638 -49.881,94.797 -50.248,94.945C-50.625,95.114 -51.003,95.273 -51.38,95.412C-51.807,95.591 -52.244,95.76 -52.681,95.919C-53.316,96.157 -53.952,96.375 -54.588,96.584C-55.442,96.872 -56.306,97.13 -57.17,97.359C-57.606,97.478 -58.033,97.587 -58.47,97.696C-58.907,97.795 -59.344,97.905 -59.781,97.994C-60.327,98.113 -60.874,98.223 -61.43,98.322C-61.946,98.421 -62.472,98.51 -62.999,98.58C-63.803,98.709 -64.617,98.808 -65.432,98.888C-65.978,98.947 -66.524,98.987 -67.08,99.027C-67.537,99.057 -68.004,99.086 -68.47,99.106C-68.629,99.116 -68.798,99.116 -68.957,99.116C-69.473,99.136 -70,99.146 -70.516,99.146C-80.089,99.146 -89.215,96.435 -97.547,91.529C-101.022,89.494 -104.359,87.061 -107.527,84.29C-110.397,81.778 -113.128,78.997 -115.7,75.939C-131.181,57.597 -141.032,30.02 -141.032,-0.814C-141.032,-28.53 -133.078,-53.604 -120.238,-71.707C-111.102,-84.597 -99.473,-93.951 -86.484,-98.212C-81.35,-99.89 -76.008,-100.784 -70.516,-100.784C-66.216,-100.784 -62.026,-100.237 -57.944,-99.195C-56.921,-98.937 -55.908,-98.639 -54.905,-98.321C-54.061,-98.043 -53.217,-97.755 -52.373,-97.437C-52.105,-97.338 -51.827,-97.228 -51.549,-97.119C-51.181,-96.98 -50.814,-96.831 -50.447,-96.672C-50.079,-96.514 -49.712,-96.355 -49.354,-96.196C-49.076,-96.077 -48.808,-95.947 -48.54,-95.828C-47.726,-95.441 -46.911,-95.044 -46.107,-94.627C-46.097,-94.706 -46.077,-94.786 -46.047,-94.875C-46.057,-94.786 -46.077,-94.706 -46.087,-94.627C-45.898,-94.527 -45.72,-94.428 -45.541,-94.329C-45.184,-94.14 -44.836,-93.941 -44.478,-93.743C-44.2,-93.584 -43.912,-93.425 -43.634,-93.256C-43.317,-93.078 -43.009,-92.889 -42.691,-92.69C-42.373,-92.502 -42.055,-92.313 -41.748,-92.104C-41.39,-91.886 -41.033,-91.658 -40.685,-91.419C-40.308,-91.171 -39.93,-90.913 -39.563,-90.655C-38.888,-90.198 -38.212,-89.711 -37.547,-89.205C-37.041,-88.817 -36.534,-88.43 -36.038,-88.033C-35.521,-87.626 -35.015,-87.209 -34.508,-86.782C-34.181,-86.504 -33.843,-86.226 -33.515,-85.928C-32.86,-85.352 -32.214,-84.766 -31.569,-84.16C-31.251,-83.862 -30.923,-83.554 -30.606,-83.246C-30.288,-82.929 -29.98,-82.621 -29.662,-82.303C-29.146,-81.787 -28.639,-81.25 -28.133,-80.714C-27.626,-80.178 -27.12,-79.622 -26.624,-79.066C-25.64,-77.953 -24.667,-76.792 -23.724,-75.61C-23.247,-75.014 -22.78,-74.408 -22.324,-73.793C-21.986,-73.356 -21.658,-72.909 -21.341,-72.462C-21.271,-72.363 -21.192,-72.273 -21.132,-72.174C-20.953,-71.936 -20.784,-71.697 -20.625,-71.459C-20.278,-70.982 -19.95,-70.506 -19.622,-70.019C-19.186,-69.374 -18.759,-68.718 -18.332,-68.053C-17.905,-67.387 -17.487,-66.722 -17.07,-66.037C-16.693,-65.421 -16.326,-64.796 -15.968,-64.17C-15.601,-63.544 -15.243,-62.909 -14.896,-62.273C-14.757,-62.035 -14.618,-61.787 -14.488,-61.538C-13.972,-60.585 -13.466,-59.612 -12.979,-58.629C-12.612,-57.904 -12.244,-57.159 -11.897,-56.404C-11.41,-55.392 -10.943,-54.369 -10.496,-53.326C-10.338,-52.968 -10.189,-52.621 -10.04,-52.254C-9.811,-51.727 -9.593,-51.201 -9.374,-50.675C-8.937,-49.582 -8.5,-48.49 -8.093,-47.378C-7.676,-46.265 -7.279,-45.143 -6.902,-44.011C-6.544,-42.949 -6.197,-41.876 -5.859,-40.804C-5.829,-40.724 -5.809,-40.645 -5.789,-40.565C-5.611,-39.979 -5.442,-39.404 -5.273,-38.818C-5.144,-38.401 -5.025,-37.974 -4.906,-37.547C-4.826,-37.259 -4.747,-36.971 -4.667,-36.673C-4.379,-35.61 -4.101,-34.548 -3.843,-33.465C-3.694,-32.869 -3.555,-32.264 -3.416,-31.658C-3.307,-31.181 -3.198,-30.704 -3.098,-30.228C-3.039,-29.97 -2.979,-29.711 -2.929,-29.443C-2.83,-28.957 -2.731,-28.47 -2.632,-27.983C-2.502,-27.368 -2.383,-26.752 -2.274,-26.127C-2.155,-25.511 -2.046,-24.885 -1.946,-24.26C-1.837,-23.634 -1.738,-22.998 -1.638,-22.373C-1.619,-22.273 -1.609,-22.164 -1.589,-22.065L-1.589,-22.055C-1.36,-20.595 -1.162,-19.126 -0.993,-17.646C-0.943,-17.308 -0.904,-16.971 -0.874,-16.633C-0.794,-15.997 -0.725,-15.352 -0.665,-14.707C-0.606,-14.061 -0.546,-13.406 -0.497,-12.75C-0.437,-12.095 -0.387,-11.439 -0.348,-10.784C-0.218,-8.867 -0.119,-6.921 -0.06,-4.965C-0.03,-4.319 -0.02,-3.664 -0.01,-3.008C0,-2.859 0,-2.701 -0.01,-2.542C-0.01,-2.542 0,-2.532 -0.01,-2.522C0,-2.512 0,-2.502 -0.01,-2.492C0,-2.482 0,-2.472 -0.01,-2.452C0,-2.174 0,-1.906 0,-1.638" style="fill:rgb(3,4,5);fill-rule:nonzero;"/>
        </g>
        <g transform="matrix(1,0,0,1,727.142,535.409)">
            <path d="M0,-60.219L-87.642,41.094L-108.179,10.965L-36.975,-65.712L-141.054,-56.12L-134.208,-88.995L-30.129,-101.313L0,-60.219Z" style="fill:rgb(3,4,5);fill-rule:nonzero;"/>
        </g>
        <g transform="matrix(1,0,0,1,964.405,275.501)">
            <path d="M0,21.161C0,98.966 -42.403,166.344 -104.22,199.105C-105.759,194.487 -107.437,189.929 -109.235,185.43C-149.344,84.825 -250.406,13.435 -368.727,13.435C-371.895,13.435 -375.063,13.485 -378.211,13.594C-374.437,-92.86 -291.25,-177.944 -189.175,-177.944C-164.15,-177.944 -140.258,-172.83 -118.391,-163.535C-48.977,-134.042 0,-62.453 0,21.161" style="fill:rgb(241,242,242);fill-rule:nonzero;"/>
        </g>
        <g transform="matrix(1,0,0,1,454.953,509.73)">
            <path d="M0,-183.902C-0.308,-183.644 -0.616,-183.415 -0.924,-183.167C-2.711,-181.777 -4.459,-180.367 -6.177,-178.937C-6.783,-178.43 -7.388,-177.934 -7.984,-177.417C-8.361,-177.1 -8.749,-176.782 -9.136,-176.464C-9.523,-176.146 -9.901,-175.809 -10.278,-175.481C-10.685,-175.133 -11.102,-174.776 -11.499,-174.418C-11.897,-174.061 -12.304,-173.703 -12.701,-173.356C-13.227,-172.889 -13.764,-172.403 -14.29,-171.946C-15.094,-171.211 -15.889,-170.486 -16.683,-169.751C-17.14,-169.324 -17.607,-168.897 -18.063,-168.48C-18.51,-168.053 -18.967,-167.626 -19.414,-167.209C-19.464,-167.159 -19.503,-167.11 -19.553,-167.07C-19.603,-167.02 -19.642,-166.971 -19.682,-166.931C-20.338,-166.315 -20.983,-165.68 -21.629,-165.054C-22.254,-164.438 -22.88,-163.823 -23.495,-163.207C-24.111,-162.591 -24.727,-161.976 -25.333,-161.36C-25.938,-160.744 -26.544,-160.119 -27.15,-159.503C-27.736,-158.877 -28.332,-158.252 -28.927,-157.626C-29.325,-157.209 -29.712,-156.792 -30.109,-156.375C-30.159,-156.315 -30.208,-156.266 -30.268,-156.206C-30.576,-155.868 -30.884,-155.541 -31.192,-155.213C-31.658,-154.716 -32.115,-154.21 -32.572,-153.704C-33.029,-153.197 -33.476,-152.691 -33.922,-152.194C-34.369,-151.698 -34.816,-151.201 -35.243,-150.705C-35.68,-150.208 -36.107,-149.712 -36.544,-149.215C-36.544,-149.215 -36.554,-149.205 -36.554,-149.195C-36.564,-149.185 -36.564,-149.175 -36.564,-149.175L-36.594,-149.145C-36.614,-149.136 -36.623,-149.116 -36.643,-149.106C-37.309,-148.321 -37.984,-147.557 -38.62,-146.792L-38.62,-146.782C-38.759,-146.623 -38.898,-146.454 -39.027,-146.295L-39.037,-146.295C-39.205,-146.087 -39.374,-145.878 -39.543,-145.68C-39.811,-145.362 -40.079,-145.054 -40.337,-144.736C-40.337,-144.726 -40.347,-144.717 -40.357,-144.707L-40.367,-144.707C-40.735,-144.25 -41.112,-143.793 -41.479,-143.336C-41.847,-142.879 -42.224,-142.423 -42.592,-141.966C-43.237,-141.171 -43.863,-140.377 -44.498,-139.582C-45.75,-137.994 -46.961,-136.395 -48.173,-134.806C-48.749,-134.021 -49.315,-133.257 -49.891,-132.492C-50.248,-131.996 -50.616,-131.499 -50.973,-131.003C-51.33,-130.506 -51.688,-130.01 -52.045,-129.523C-53.088,-128.083 -54.101,-126.633 -55.074,-125.193C-55.63,-124.389 -56.167,-123.594 -56.703,-122.79C-57.239,-121.986 -57.775,-121.191 -58.302,-120.387C-59.285,-118.907 -60.248,-117.418 -61.182,-115.938C-61.757,-115.015 -62.314,-114.101 -62.88,-113.187C-63.366,-112.393 -63.863,-111.579 -64.339,-110.784C-65.054,-109.593 -65.749,-108.411 -66.435,-107.229C-66.971,-106.306 -67.507,-105.392 -68.024,-104.478C-68.699,-103.297 -69.354,-102.125 -70,-100.953C-71.201,-98.778 -72.353,-96.623 -73.465,-94.478C-74.012,-93.406 -74.568,-92.333 -75.104,-91.261C-76.186,-89.136 -77.219,-87.011 -78.212,-84.915C-78.669,-83.932 -79.136,-82.959 -79.583,-81.986C-80.973,-78.977 -82.294,-75.998 -83.535,-73.088C-83.724,-72.631 -83.922,-72.175 -84.111,-71.728C-84.151,-71.638 -84.18,-71.559 -84.22,-71.47C-84.349,-71.162 -84.468,-70.864 -84.597,-70.566C-84.786,-70.109 -84.975,-69.642 -85.163,-69.176C-85.352,-68.709 -85.541,-68.242 -85.73,-67.785C-86.047,-66.991 -86.365,-66.196 -86.673,-65.422C-86.991,-64.627 -87.289,-63.853 -87.596,-63.078C-87.646,-62.959 -87.686,-62.84 -87.736,-62.721C-87.775,-62.602 -87.825,-62.473 -87.865,-62.353C-89.235,-58.778 -90.476,-55.313 -91.618,-51.986C-91.916,-51.152 -92.194,-50.328 -92.452,-49.503C-92.502,-49.364 -92.542,-49.245 -92.591,-49.106C-92.711,-48.759 -92.82,-48.421 -92.929,-48.093C-93.038,-47.756 -93.148,-47.418 -93.267,-47.08C-93.783,-45.482 -94.28,-43.903 -94.736,-42.383C-94.965,-41.619 -95.203,-40.864 -95.422,-40.109C-95.432,-40.079 -95.451,-40.06 -95.451,-40.03C-95.888,-38.56 -96.296,-37.14 -96.683,-35.76C-97.388,-33.307 -98.004,-30.993 -98.56,-28.798C-98.758,-28.024 -98.957,-27.249 -99.136,-26.504C-112.125,-22.244 -123.753,-12.89 -132.889,0C-122.154,-57.964 -92.135,-109.473 -49.464,-148.113C-47.716,-149.702 -45.938,-151.271 -44.141,-152.82C-30.566,-164.528 -15.789,-174.935 0,-183.902" style="fill:rgb(98,6,19);fill-rule:nonzero;"/>
        </g>
    </g>
</svg>
